<?xml version="1.0" encoding="UTF-8" standalone="no"?>
<svg
   id="Layer_1"
   data-name="Layer 1"
   viewBox="0 0 597.34594 534.17"
   version="1.1"
   sodipodi:docname="ansible_inv_start.svg"
   inkscape:version="1.3 (0e150ed6c4, 2023-07-21)"
   width="597.34595"
   height="534.16998"
   xmlns:inkscape="http://www.inkscape.org/namespaces/inkscape"
   xmlns:sodipodi="http://sodipodi.sourceforge.net/DTD/sodipodi-0.dtd"
   xmlns="http://www.w3.org/2000/svg"
   xmlns:svg="http://www.w3.org/2000/svg">
  <sodipodi:namedview
     id="namedview95"
     pagecolor="#ffffff"
     bordercolor="#111111"
     borderopacity="1"
     inkscape:showpageshadow="0"
     inkscape:pageopacity="0"
     inkscape:pagecheckerboard="1"
     inkscape:deskcolor="#d1d1d1"
     inkscape:zoom="1.0978544"
     inkscape:cx="451.79032"
     inkscape:cy="340.20904"
     inkscape:window-width="1920"
     inkscape:window-height="979"
     inkscape:window-x="0"
     inkscape:window-y="0"
     inkscape:window-maximized="1"
     inkscape:current-layer="Layer_1" />
  <defs
     id="defs1">
    <style
       id="style1">&#10;      .cls-1 {&#10;        stroke-width: 5px;&#10;      }&#10;&#10;      .cls-1, .cls-2, .cls-3 {&#10;        fill: #fff;&#10;      }&#10;&#10;      .cls-1, .cls-3, .cls-4 {&#10;        stroke: #1d437e;&#10;        stroke-miterlimit: 10;&#10;      }&#10;&#10;      .cls-5 {&#10;        fill: #010101;&#10;      }&#10;&#10;      .cls-6, .cls-7 {&#10;        fill: #231f20;&#10;      }&#10;&#10;      .cls-8 {&#10;        fill: #1d437e;&#10;      }&#10;&#10;      .cls-3, .cls-7, .cls-4 {&#10;        stroke-width: 2px;&#10;      }&#10;&#10;      .cls-7 {&#10;        stroke: #231f20;&#10;        stroke-linecap: round;&#10;        stroke-linejoin: round;&#10;      }&#10;&#10;      .cls-4 {&#10;        fill: none;&#10;      }&#10;    </style>
  </defs>
  <rect
     class="cls-1"
     x="2.5"
     y="3.0999999"
     width="592.29999"
     height="231.34"
     id="rect1" />
  <rect
     class="cls-8"
     width="597.18549"
     height="76.349998"
     id="rect2"
     x="0.1604768"
     y="0"
     style="stroke-width:1.0016" />
  <rect
     class="cls-1"
     x="43.57"
     y="364.32999"
     width="505.79001"
     height="167.34"
     id="rect3" />
  <path
     class="cls-3"
     d="M 296.5,234.44 V 290.5"
     id="path3" />
  <g
     id="g15"
     transform="translate(-1.1400001)">
    <g
       id="g7">
      <path
         class="cls-6"
         d="m 153.78,152.16 h -3.85 c -0.21,-0.63 -0.46,-1.25 -0.75,-1.85 l 2.74,-2.74 c 0.36,-0.36 0.41,-0.93 0.12,-1.35 -1.28,-1.88 -2.91,-3.49 -4.79,-4.77 -0.42,-0.3 -1,-0.25 -1.37,0.12 l -2.72,2.72 c -0.61,-0.31 -1.24,-0.58 -1.88,-0.8 v -3.87 c 0,-0.51 -0.35,-0.95 -0.86,-1.04 -2.22,-0.44 -4.51,-0.44 -6.74,0 -0.51,0.1 -0.87,0.54 -0.87,1.06 v 3.83 c -0.67,0.22 -1.33,0.48 -1.97,0.79 l -2.74,-2.74 c -0.36,-0.36 -0.93,-0.41 -1.35,-0.12 -1.85,1.27 -3.45,2.88 -4.72,4.74 -0.3,0.42 -0.25,1 0.12,1.37 l 2.72,2.72 c -0.33,0.64 -0.61,1.3 -0.84,1.98 h -3.85 c -0.51,0 -0.96,0.37 -1.06,0.87 -0.41,2.23 -0.41,4.51 0,6.74 0.1,0.5 0.55,0.87 1.06,0.87 h 3.85 c 0.23,0.68 0.51,1.35 0.84,1.98 l -2.72,2.67 c -0.37,0.37 -0.42,0.94 -0.12,1.37 1.27,1.87 2.89,3.48 4.77,4.74 0.42,0.29 0.99,0.24 1.35,-0.12 l 2.74,-2.74 c 0.64,0.31 1.29,0.57 1.97,0.79 v 3.83 c 0,0.52 0.36,0.96 0.87,1.06 1.07,0.19 2.16,0.29 3.25,0.29 1.15,0 2.29,-0.12 3.42,-0.34 0.5,-0.09 0.86,-0.53 0.86,-1.04 v -3.87 c 0.65,-0.22 1.27,-0.49 1.88,-0.8 l 2.72,2.72 c 0.37,0.37 0.94,0.42 1.37,0.12 1.88,-1.25 3.51,-2.84 4.81,-4.69 0.29,-0.42 0.24,-0.99 -0.12,-1.35 l -2.74,-2.74 c 0.29,-0.6 0.54,-1.21 0.75,-1.85 h 3.85 c 0.51,0 0.96,-0.37 1.06,-0.87 0.41,-2.23 0.41,-4.51 0,-6.74 -0.07,-0.54 -0.52,-0.95 -1.06,-0.96 z m -0.91,6.35 h -3.75 c -0.49,0 -0.91,0.33 -1.03,0.8 -0.27,0.99 -0.67,1.95 -1.18,2.84 -0.24,0.42 -0.17,0.94 0.17,1.28 l 2.67,2.67 c -0.86,1.11 -1.85,2.11 -2.96,2.98 l -2.65,-2.65 c -0.35,-0.34 -0.88,-0.41 -1.3,-0.15 -0.9,0.53 -1.86,0.94 -2.87,1.21 -0.46,0.12 -0.79,0.55 -0.79,1.03 v 3.76 c -1.39,0.2 -2.8,0.2 -4.19,0 v -3.69 c 0,-0.49 -0.33,-0.92 -0.8,-1.04 -1.04,-0.26 -2.03,-0.66 -2.96,-1.2 -0.42,-0.24 -0.94,-0.17 -1.28,0.17 l -2.67,2.67 c -1.11,-0.86 -2.11,-1.85 -2.98,-2.96 l 2.65,-2.65 c 0.34,-0.35 0.41,-0.88 0.15,-1.3 -0.55,-0.93 -0.98,-1.93 -1.25,-2.98 -0.12,-0.46 -0.55,-0.79 -1.03,-0.79 h -3.75 c -0.21,-1.39 -0.21,-2.81 0,-4.21 h 3.75 c 0.48,0 0.9,-0.32 1.03,-0.79 0.27,-1.05 0.69,-2.05 1.25,-2.98 0.25,-0.42 0.19,-0.95 -0.15,-1.3 l -2.65,-2.65 c 0.86,-1.11 1.86,-2.1 2.98,-2.96 l 2.67,2.67 c 0.34,0.34 0.87,0.41 1.28,0.17 0.93,-0.54 1.92,-0.94 2.96,-1.2 0.47,-0.12 0.8,-0.55 0.8,-1.04 v -3.73 c 1.39,-0.2 2.8,-0.2 4.19,0 v 3.76 c 0,0.48 0.32,0.9 0.79,1.03 1.01,0.27 1.98,0.68 2.87,1.21 0.42,0.25 0.95,0.19 1.3,-0.15 l 2.65,-2.65 c 1.11,0.86 2.1,1.86 2.96,2.98 l -2.67,2.67 c -0.34,0.34 -0.41,0.87 -0.17,1.28 0.51,0.89 0.91,1.85 1.18,2.84 0.12,0.47 0.54,0.8 1.03,0.8 h 3.75 c 0.21,1.39 0.21,2.81 0,4.21 v 0.03 z"
         id="path4" />
      <path
         class="cls-6"
         d="m 136.98,150.45 c -3.29,0 -5.95,2.66 -5.95,5.95 0,3.29 2.66,5.95 5.95,5.95 3.29,0 5.95,-2.66 5.95,-5.95 v 0 c 0,-3.29 -2.66,-5.95 -5.95,-5.95 z m 0,9.77 c -2.11,0 -3.81,-1.71 -3.81,-3.81 0,-2.1 1.71,-3.81 3.81,-3.81 2.11,0 3.81,1.71 3.81,3.81 v 0 c 0,2.11 -1.71,3.81 -3.81,3.81 z"
         id="path5" />
      <path
         class="cls-6"
         d="m 168.57,136.56 c -0.09,-0.5 -0.53,-0.87 -1.04,-0.87 h -2.94 c -0.14,-0.41 -0.31,-0.82 -0.5,-1.21 l 2.09,-2.02 c 0.36,-0.36 0.42,-0.93 0.14,-1.35 -1.03,-1.54 -2.33,-2.88 -3.85,-3.95 -0.43,-0.29 -1,-0.24 -1.37,0.12 l -2.07,2.07 c -0.41,-0.2 -0.82,-0.38 -1.25,-0.53 v -2.94 c 0,-0.52 -0.36,-0.96 -0.87,-1.04 -1.8,-0.35 -3.65,-0.35 -5.46,0 -0.51,0.08 -0.88,0.53 -0.87,1.04 v 2.89 c -0.45,0.14 -0.89,0.32 -1.32,0.53 l -2.02,-2.09 c -0.36,-0.36 -0.93,-0.42 -1.35,-0.14 -1.54,1.03 -2.88,2.33 -3.95,3.85 -0.29,0.43 -0.24,1 0.12,1.37 l 2.07,2.07 c -0.33,0.69 -0.6,1.4 -0.8,2.14 -0.14,0.57 0.2,1.15 0.77,1.3 0.57,0.15 1.15,-0.18 1.3,-0.75 0,0 0,0 0,0 0.22,-0.82 0.55,-1.6 0.97,-2.33 0.25,-0.42 0.19,-0.95 -0.15,-1.3 l -1.98,-1.98 c 0.61,-0.77 1.31,-1.46 2.09,-2.07 l 1.98,2 c 0.34,0.34 0.88,0.41 1.3,0.17 0.71,-0.42 1.49,-0.74 2.29,-0.94 0.47,-0.12 0.81,-0.54 0.82,-1.03 v -2.8 c 0.97,-0.12 1.95,-0.12 2.92,0 v 2.84 c 0,0.49 0.32,0.91 0.79,1.04 0.79,0.21 1.54,0.53 2.24,0.94 0.42,0.25 0.95,0.19 1.3,-0.15 l 1.98,-1.98 c 0.77,0.61 1.46,1.31 2.07,2.09 l -2,1.98 c -0.34,0.34 -0.41,0.88 -0.17,1.3 0.41,0.69 0.72,1.44 0.92,2.22 0.12,0.46 0.55,0.79 1.03,0.79 h 2.8 c 0.14,0.98 0.14,1.97 0,2.94 h -2.8 c -0.48,0 -0.9,0.32 -1.03,0.79 -0.2,0.78 -0.51,1.53 -0.92,2.22 -0.24,0.42 -0.17,0.96 0.17,1.3 l 2,1.98 c -0.61,0.77 -1.3,1.47 -2.07,2.09 l -1.98,-1.98 c -0.35,-0.34 -0.88,-0.41 -1.3,-0.15 -0.7,0.41 -1.45,0.73 -2.24,0.94 -0.56,0.21 -0.84,0.83 -0.63,1.39 0.18,0.48 0.68,0.77 1.19,0.68 0.7,-0.19 1.38,-0.45 2.04,-0.77 l 2.07,2.02 c 0.2,0.2 0.47,0.31 0.75,0.31 0.22,0 0.43,-0.07 0.62,-0.19 1.51,-1.05 2.81,-2.37 3.85,-3.88 0.28,-0.43 0.22,-0.99 -0.14,-1.35 l -2.09,-2.09 c 0.19,-0.39 0.36,-0.8 0.5,-1.21 h 2.94 c 0.51,0 0.95,-0.37 1.04,-0.87 0.34,-1.81 0.34,-3.66 0,-5.47 v 0.05 z"
         id="path6" />
      <path
         class="cls-6"
         d="m 154.08,142.14 c -0.59,0.07 -1.01,0.61 -0.93,1.2 0.06,0.49 0.45,0.87 0.93,0.93 2.75,0 4.98,-2.23 4.98,-4.98 0,-2.75 -2.23,-4.98 -4.98,-4.98 -2.75,0 -4.98,2.23 -4.98,4.98 v 0 c 0.07,0.59 0.61,1.01 1.2,0.93 0.49,-0.06 0.87,-0.45 0.93,-0.93 0,-1.57 1.27,-2.84 2.84,-2.84 1.57,0 2.84,1.27 2.84,2.84 0,1.57 -1.27,2.84 -2.84,2.84 v 0 z"
         id="path7" />
    </g>
    <g
       id="g14">
      <path
         class="cls-6"
         d="m 181.94,160.22 6.96,-16.8 h 2.23 l 6.91,16.8 h -2.02 l -2.11,-5.28 h -7.92 l -2.14,5.28 h -1.92 z m 4.7,-6.86 h 6.62 l -3.31,-8.23 z"
         id="path8" />
      <path
         class="cls-6"
         d="M 199.7,160.22 V 148.2 h 1.78 v 1.42 c 0.94,-1.1 2.21,-1.66 3.79,-1.66 0.91,0 1.72,0.2 2.41,0.59 0.7,0.39 1.24,0.94 1.63,1.63 0.39,0.7 0.59,1.51 0.59,2.44 v 7.61 h -1.75 v -7.25 c 0,-1.07 -0.3,-1.92 -0.9,-2.53 -0.6,-0.61 -1.42,-0.92 -2.46,-0.92 -0.72,0 -1.36,0.16 -1.92,0.48 -0.56,0.32 -1.02,0.78 -1.39,1.37 v 8.86 h -1.78 z"
         id="path9" />
      <path
         class="cls-6"
         d="m 216.76,160.46 c -0.99,0 -1.92,-0.16 -2.8,-0.49 -0.87,-0.33 -1.63,-0.79 -2.27,-1.38 l 1.08,-1.15 c 0.56,0.51 1.18,0.91 1.85,1.19 0.67,0.28 1.36,0.42 2.06,0.42 0.96,0 1.74,-0.2 2.35,-0.6 0.61,-0.4 0.91,-0.92 0.91,-1.56 0,-0.53 -0.18,-0.94 -0.54,-1.24 -0.36,-0.3 -0.92,-0.5 -1.69,-0.61 l -2.09,-0.29 c -1.2,-0.18 -2.09,-0.54 -2.68,-1.08 -0.59,-0.54 -0.88,-1.28 -0.88,-2.21 0,-0.67 0.19,-1.27 0.58,-1.8 0.38,-0.53 0.92,-0.94 1.6,-1.25 0.68,-0.3 1.46,-0.46 2.34,-0.46 0.88,0 1.7,0.13 2.47,0.38 0.77,0.26 1.52,0.66 2.26,1.2 l -0.94,1.2 c -0.67,-0.46 -1.32,-0.8 -1.96,-1.02 -0.63,-0.22 -1.28,-0.32 -1.93,-0.32 -0.83,0 -1.5,0.18 -2.02,0.55 -0.51,0.37 -0.77,0.85 -0.77,1.44 0,0.54 0.18,0.96 0.53,1.24 0.35,0.28 0.92,0.48 1.7,0.59 l 2.09,0.29 c 1.2,0.16 2.1,0.51 2.7,1.06 0.6,0.54 0.9,1.29 0.9,2.23 0,0.69 -0.22,1.31 -0.65,1.87 -0.43,0.56 -1.01,1 -1.74,1.32 -0.73,0.32 -1.56,0.48 -2.48,0.48 z"
         id="path10" />
      <path
         class="cls-6"
         d="m 224.56,145.89 c -0.32,0 -0.6,-0.12 -0.84,-0.36 -0.24,-0.24 -0.36,-0.53 -0.36,-0.86 0,-0.33 0.12,-0.6 0.36,-0.83 0.24,-0.23 0.52,-0.35 0.84,-0.35 0.32,0 0.62,0.12 0.85,0.35 0.23,0.23 0.35,0.52 0.35,0.85 0,0.33 -0.12,0.6 -0.35,0.84 -0.23,0.24 -0.52,0.36 -0.85,0.36 z m -0.89,14.33 V 148.2 h 1.78 v 12.02 z"
         id="path11" />
      <path
         class="cls-6"
         d="m 228.52,160.22 v -16.8 l 1.78,-0.41 v 6.46 c 1.02,-0.98 2.31,-1.46 3.86,-1.46 1.14,0 2.16,0.28 3.07,0.83 0.91,0.55 1.64,1.29 2.17,2.22 0.54,0.93 0.8,1.98 0.8,3.14 0,1.16 -0.27,2.22 -0.8,3.16 -0.54,0.94 -1.26,1.68 -2.17,2.23 -0.91,0.55 -1.94,0.83 -3.1,0.83 -0.7,0 -1.39,-0.12 -2.05,-0.36 -0.66,-0.24 -1.27,-0.58 -1.81,-1.03 v 1.2 h -1.75 z m 5.47,-1.37 c 0.85,0 1.61,-0.2 2.28,-0.61 0.67,-0.41 1.2,-0.96 1.6,-1.66 0.39,-0.7 0.59,-1.48 0.59,-2.36 0,-0.88 -0.2,-1.67 -0.59,-2.38 -0.39,-0.71 -0.92,-1.26 -1.6,-1.67 -0.67,-0.41 -1.43,-0.61 -2.28,-0.61 -0.75,0 -1.45,0.15 -2.1,0.44 -0.65,0.3 -1.18,0.71 -1.6,1.24 v 5.95 c 0.42,0.51 0.95,0.92 1.61,1.21 0.66,0.3 1.35,0.44 2.09,0.44 z"
         id="path12" />
      <path
         class="cls-6"
         d="m 242.73,160.22 v -16.8 l 1.78,-0.41 v 17.21 z"
         id="path13" />
      <path
         class="cls-6"
         d="m 253.22,160.43 c -1.15,0 -2.2,-0.28 -3.13,-0.83 -0.94,-0.55 -1.68,-1.3 -2.23,-2.24 -0.55,-0.94 -0.83,-2 -0.83,-3.17 0,-1.17 0.26,-2.2 0.79,-3.13 0.53,-0.94 1.24,-1.68 2.14,-2.23 0.9,-0.55 1.9,-0.83 3,-0.83 1.1,0 2.04,0.28 2.89,0.83 0.86,0.55 1.54,1.3 2.04,2.23 0.5,0.94 0.76,1.98 0.76,3.13 v 0.55 h -9.86 c 0.1,0.78 0.35,1.49 0.76,2.11 0.41,0.62 0.94,1.12 1.6,1.48 0.66,0.36 1.38,0.54 2.16,0.54 0.62,0 1.23,-0.1 1.82,-0.29 0.59,-0.19 1.09,-0.46 1.49,-0.82 l 1.1,1.18 c -0.67,0.5 -1.37,0.87 -2.1,1.12 -0.73,0.25 -1.52,0.37 -2.39,0.37 z m -4.39,-7.1 h 8.04 c -0.1,-0.72 -0.33,-1.36 -0.71,-1.93 -0.38,-0.57 -0.84,-1.02 -1.4,-1.34 -0.56,-0.33 -1.18,-0.49 -1.85,-0.49 -0.67,0 -1.32,0.16 -1.9,0.48 -0.58,0.32 -1.06,0.76 -1.44,1.33 -0.38,0.57 -0.63,1.22 -0.74,1.96 z"
         id="path14" />
    </g>
  </g>
  <g
     id="g29"
     transform="translate(-1.1400001)">
    <g
       id="g19">
      <path
         class="cls-6"
         d="m 374.43,124.57 h -29.37 c -0.3,0.01 -0.59,0.13 -0.81,0.33 l -7.34,7.34 c -0.14,0.14 -0.23,0.32 -0.28,0.51 v 40.68 c 0,0.63 0.51,1.14 1.14,1.14 h 36.66 c 0.63,0 1.14,-0.51 1.14,-1.14 v 0 -47.72 c 0,-0.63 -0.51,-1.14 -1.14,-1.14 z m -30.51,3.91 v 3.43 h -3.43 z m 29.37,43.81 h -34.43 v -38.11 h 6.2 c 0.63,0 1.14,-0.51 1.14,-1.14 v -6.2 h 27.09 z"
         id="path15" />
      <path
         class="cls-6"
         d="m 345.06,141.09 c -0.63,0 -1.14,0.51 -1.14,1.14 0,0.63 0.51,1.14 1.14,1.14 h 11.01 c 0.63,0 1.14,-0.51 1.14,-1.14 0,-0.63 -0.51,-1.14 -1.14,-1.14 z"
         id="path16" />
      <path
         class="cls-6"
         d="m 343.92,149.57 c 0,0.63 0.51,1.14 1.14,1.14 h 22.03 c 0.63,0 1.14,-0.51 1.14,-1.14 0,-0.63 -0.51,-1.14 -1.14,-1.14 h -22.03 c -0.63,0 -1.14,0.51 -1.14,1.14 z"
         id="path17" />
      <path
         class="cls-6"
         d="m 367.08,155.77 h -22.03 c -0.63,0 -1.14,0.51 -1.14,1.14 0,0.63 0.51,1.14 1.14,1.14 h 22.03 c 0.63,0 1.14,-0.51 1.14,-1.14 0,-0.63 -0.51,-1.14 -1.14,-1.14 z"
         id="path18" />
      <path
         class="cls-6"
         d="m 367.08,163.11 h -22.03 c -0.63,0 -1.14,0.51 -1.14,1.14 0,0.63 0.51,1.14 1.14,1.14 h 22.03 c 0.63,0 1.14,-0.51 1.14,-1.14 0,-0.63 -0.51,-1.14 -1.14,-1.14 z"
         id="path19" />
    </g>
    <g
       id="g28">
      <path
         class="cls-6"
         d="m 396.96,160.22 v -16.8 h 1.85 v 16.8 z"
         id="path20" />
      <path
         class="cls-6"
         d="M 402.21,160.22 V 148.2 h 1.78 v 1.42 c 0.94,-1.1 2.21,-1.66 3.79,-1.66 0.91,0 1.72,0.2 2.41,0.59 0.69,0.39 1.24,0.94 1.63,1.63 0.39,0.7 0.59,1.51 0.59,2.44 v 7.61 h -1.75 v -7.25 c 0,-1.07 -0.3,-1.92 -0.9,-2.53 -0.6,-0.62 -1.42,-0.92 -2.46,-0.92 -0.72,0 -1.36,0.16 -1.92,0.48 -0.56,0.32 -1.02,0.78 -1.39,1.37 v 8.86 h -1.78 z"
         id="path21" />
      <path
         class="cls-6"
         d="m 418.65,160.22 -5.21,-12.02 h 1.97 l 4.1,9.72 4.1,-9.72 h 1.9 l -5.18,12.02 z"
         id="path22" />
      <path
         class="cls-6"
         d="m 432.48,160.43 c -1.15,0 -2.2,-0.28 -3.13,-0.83 -0.94,-0.55 -1.68,-1.3 -2.23,-2.24 -0.55,-0.94 -0.83,-2 -0.83,-3.17 0,-1.17 0.26,-2.2 0.79,-3.13 0.53,-0.94 1.24,-1.68 2.14,-2.23 0.9,-0.55 1.9,-0.83 3,-0.83 1.1,0 2.04,0.28 2.89,0.83 0.86,0.55 1.54,1.3 2.04,2.23 0.5,0.94 0.76,1.98 0.76,3.13 v 0.55 h -9.86 c 0.1,0.78 0.35,1.49 0.76,2.11 0.41,0.62 0.94,1.12 1.6,1.48 0.66,0.36 1.38,0.54 2.16,0.54 0.62,0 1.23,-0.1 1.82,-0.29 0.59,-0.19 1.09,-0.46 1.49,-0.82 l 1.1,1.18 c -0.67,0.5 -1.37,0.87 -2.1,1.12 -0.73,0.25 -1.52,0.37 -2.39,0.37 z m -4.39,-7.1 h 8.04 c -0.1,-0.72 -0.33,-1.36 -0.71,-1.93 -0.38,-0.57 -0.84,-1.02 -1.4,-1.34 -0.56,-0.33 -1.18,-0.49 -1.85,-0.49 -0.67,0 -1.32,0.16 -1.9,0.48 -0.58,0.32 -1.06,0.76 -1.44,1.33 -0.38,0.57 -0.63,1.22 -0.74,1.96 z"
         id="path23" />
      <path
         class="cls-6"
         d="M 440.42,160.22 V 148.2 h 1.78 v 1.42 c 0.94,-1.1 2.21,-1.66 3.79,-1.66 0.91,0 1.72,0.2 2.41,0.59 0.69,0.39 1.24,0.94 1.63,1.63 0.39,0.7 0.59,1.51 0.59,2.44 v 7.61 h -1.75 v -7.25 c 0,-1.07 -0.3,-1.92 -0.9,-2.53 -0.6,-0.62 -1.42,-0.92 -2.46,-0.92 -0.72,0 -1.36,0.16 -1.92,0.48 -0.56,0.32 -1.02,0.78 -1.39,1.37 v 8.86 h -1.78 z"
         id="path24" />
      <path
         class="cls-6"
         d="m 458.01,160.46 c -1.04,0 -1.84,-0.25 -2.4,-0.74 -0.56,-0.5 -0.84,-1.22 -0.84,-2.16 v -7.85 h -2.59 v -1.51 h 2.59 v -3.05 l 1.75,-0.46 v 3.5 h 3.62 v 1.51 h -3.62 v 7.39 c 0,0.64 0.14,1.1 0.43,1.38 0.29,0.28 0.76,0.42 1.42,0.42 0.34,0 0.64,-0.02 0.9,-0.07 0.26,-0.05 0.55,-0.13 0.85,-0.24 v 1.56 c -0.3,0.11 -0.64,0.19 -1.02,0.24 -0.38,0.05 -0.74,0.07 -1.09,0.07 z"
         id="path25" />
      <path
         class="cls-6"
         d="m 467.45,160.46 c -1.14,0 -2.17,-0.28 -3.11,-0.83 -0.94,-0.55 -1.68,-1.3 -2.22,-2.24 -0.54,-0.94 -0.82,-2 -0.82,-3.17 0,-1.17 0.27,-2.22 0.82,-3.17 0.54,-0.94 1.28,-1.69 2.22,-2.24 0.94,-0.55 1.97,-0.83 3.11,-0.83 1.14,0 2.19,0.28 3.12,0.83 0.93,0.55 1.66,1.3 2.21,2.24 0.54,0.94 0.82,2 0.82,3.17 0,1.17 -0.27,2.22 -0.82,3.17 -0.54,0.94 -1.28,1.69 -2.21,2.24 -0.93,0.55 -1.97,0.83 -3.12,0.83 z m 0,-1.58 c 0.82,0 1.56,-0.21 2.22,-0.62 0.66,-0.42 1.19,-0.98 1.58,-1.68 0.39,-0.7 0.59,-1.49 0.59,-2.35 0,-0.86 -0.2,-1.67 -0.59,-2.36 -0.39,-0.7 -0.92,-1.25 -1.58,-1.67 -0.66,-0.42 -1.4,-0.62 -2.22,-0.62 -0.82,0 -1.56,0.21 -2.22,0.62 -0.66,0.42 -1.19,0.97 -1.58,1.67 -0.39,0.7 -0.59,1.48 -0.59,2.36 0,0.88 0.2,1.65 0.59,2.35 0.39,0.7 0.92,1.26 1.58,1.68 0.66,0.42 1.4,0.62 2.22,0.62 z"
         id="path26" />
      <path
         class="cls-6"
         d="M 476.11,160.22 V 148.2 h 1.78 v 1.7 c 0.37,-0.62 0.84,-1.11 1.4,-1.45 0.57,-0.34 1.22,-0.52 1.96,-0.52 0.42,0 0.79,0.06 1.13,0.17 v 1.63 c -0.21,-0.08 -0.42,-0.14 -0.62,-0.17 -0.21,-0.03 -0.42,-0.05 -0.62,-0.05 -0.74,0 -1.38,0.21 -1.93,0.64 -0.55,0.42 -0.99,1.04 -1.31,1.84 v 8.23 h -1.78 z"
         id="path27" />
      <path
         class="cls-6"
         d="m 485.21,165.35 c -0.22,0 -0.44,-0.01 -0.64,-0.04 -0.2,-0.03 -0.36,-0.05 -0.49,-0.08 v -1.61 c 0.27,0.06 0.61,0.1 1.01,0.1 1.06,0 1.86,-0.62 2.4,-1.87 l 0.72,-1.66 -4.9,-12 h 1.97 l 3.89,9.86 4.2,-9.86 h 1.92 l -6,13.9 c -0.34,0.77 -0.7,1.39 -1.08,1.87 -0.38,0.48 -0.82,0.83 -1.31,1.06 -0.49,0.23 -1.05,0.34 -1.69,0.34 z"
         id="path28" />
    </g>
  </g>
  <g
     id="g39"
     transform="translate(-1.1400001)">
    <path
       class="cls-2"
       d="m 35.3,49.16 c -1.87,0 -3.61,-0.33 -5.2,-0.99 -1.6,-0.66 -3,-1.58 -4.21,-2.77 -1.21,-1.19 -2.15,-2.57 -2.81,-4.14 -0.66,-1.57 -0.99,-3.27 -0.99,-5.09 0,-1.82 0.33,-3.56 0.99,-5.13 0.66,-1.57 1.6,-2.95 2.81,-4.12 1.21,-1.18 2.62,-2.09 4.23,-2.75 1.61,-0.66 3.34,-0.99 5.18,-0.99 1.32,0 2.61,0.17 3.87,0.52 1.26,0.35 2.42,0.85 3.49,1.49 1.07,0.64 2.01,1.44 2.83,2.38 l -2.56,2.56 C 41.99,29 40.85,28.14 39.51,27.56 38.17,26.97 36.76,26.68 35.3,26.68 c -1.34,0 -2.58,0.24 -3.71,0.72 -1.13,0.48 -2.12,1.15 -2.97,2.02 -0.85,0.86 -1.51,1.87 -1.98,3.02 -0.47,1.15 -0.7,2.4 -0.7,3.74 0,1.34 0.23,2.59 0.7,3.74 0.47,1.15 1.13,2.16 1.98,3.02 0.85,0.86 1.86,1.54 3.02,2.02 1.16,0.48 2.41,0.72 3.73,0.72 1.46,0 2.86,-0.3 4.18,-0.9 1.32,-0.6 2.44,-1.43 3.35,-2.48 l 2.48,2.52 c -0.82,0.89 -1.76,1.66 -2.83,2.32 -1.07,0.66 -2.22,1.16 -3.46,1.51 -1.24,0.35 -2.5,0.52 -3.8,0.52 z"
       id="path29" />
    <path
       class="cls-2"
       d="m 56.83,49.12 c -1.78,0 -3.39,-0.41 -4.84,-1.24 -1.45,-0.83 -2.6,-1.97 -3.46,-3.42 -0.85,-1.45 -1.28,-3.07 -1.28,-4.84 0,-1.77 0.42,-3.41 1.26,-4.84 0.84,-1.43 1.99,-2.57 3.46,-3.42 1.46,-0.85 3.08,-1.28 4.86,-1.28 1.78,0 3.39,0.43 4.84,1.28 1.45,0.85 2.6,1.99 3.44,3.42 0.84,1.43 1.26,3.04 1.26,4.84 0,1.8 -0.42,3.39 -1.26,4.84 -0.84,1.45 -1.99,2.59 -3.44,3.42 -1.45,0.83 -3.07,1.24 -4.84,1.24 z m 0,-3.17 c 1.13,0 2.15,-0.28 3.06,-0.85 0.91,-0.56 1.63,-1.33 2.16,-2.29 0.53,-0.96 0.79,-2.04 0.79,-3.24 0,-1.2 -0.26,-2.24 -0.79,-3.19 -0.53,-0.95 -1.25,-1.71 -2.16,-2.29 -0.91,-0.58 -1.93,-0.86 -3.06,-0.86 -1.13,0 -2.12,0.29 -3.04,0.86 -0.92,0.58 -1.65,1.34 -2.18,2.29 -0.53,0.95 -0.79,2.01 -0.79,3.19 0,1.18 0.26,2.28 0.79,3.24 0.53,0.96 1.25,1.72 2.18,2.29 0.92,0.56 1.94,0.85 3.04,0.85 z"
       id="path30" />
    <path
       class="cls-2"
       d="M 69.79,48.76 V 30.44 h 3.6 v 1.87 c 1.42,-1.49 3.25,-2.23 5.51,-2.23 1.42,0 2.66,0.3 3.73,0.9 1.07,0.6 1.91,1.44 2.52,2.52 0.61,1.08 0.92,2.33 0.92,3.74 v 11.52 h -3.6 V 37.85 c 0,-1.44 -0.41,-2.57 -1.22,-3.4 -0.81,-0.83 -1.93,-1.24 -3.35,-1.24 -0.96,0 -1.82,0.21 -2.57,0.63 -0.75,0.42 -1.4,1.01 -1.93,1.78 v 13.14 h -3.6 z"
       id="path31" />
    <path
       class="cls-2"
       d="m 97.47,49.08 c -1.75,0 -3.1,-0.41 -4.03,-1.22 -0.93,-0.81 -1.4,-2.03 -1.4,-3.64 V 33.46 h -3.89 v -3.02 h 3.89 V 25.8 l 3.56,-0.9 v 5.54 h 5.44 v 3.02 H 95.6 v 9.97 c 0,0.91 0.21,1.57 0.63,1.96 0.42,0.39 1.11,0.59 2.07,0.59 0.5,0 0.95,-0.04 1.35,-0.11 0.4,-0.07 0.82,-0.19 1.28,-0.36 v 3.06 c -0.48,0.17 -1.04,0.29 -1.67,0.38 -0.64,0.08 -1.23,0.13 -1.78,0.13 z"
       id="path32" />
    <path
       class="cls-2"
       d="M 103.66,48.76 V 30.4 h 3.6 v 2.38 c 0.58,-0.86 1.29,-1.54 2.14,-2.02 0.85,-0.48 1.82,-0.72 2.9,-0.72 0.74,0 1.36,0.1 1.84,0.29 v 3.24 c -0.34,-0.14 -0.68,-0.25 -1.04,-0.31 -0.36,-0.06 -0.73,-0.09 -1.12,-0.09 -1.03,0 -1.96,0.28 -2.77,0.85 -0.82,0.56 -1.46,1.39 -1.94,2.47 v 12.28 h -3.6 z"
       id="path33" />
    <path
       class="cls-2"
       d="m 124.69,49.12 c -1.78,0 -3.39,-0.41 -4.84,-1.24 -1.45,-0.83 -2.6,-1.97 -3.46,-3.42 -0.85,-1.45 -1.28,-3.07 -1.28,-4.84 0,-1.77 0.42,-3.41 1.26,-4.84 0.84,-1.43 1.99,-2.57 3.46,-3.42 1.46,-0.85 3.08,-1.28 4.86,-1.28 1.78,0 3.39,0.43 4.84,1.28 1.45,0.85 2.6,1.99 3.44,3.42 0.84,1.43 1.26,3.04 1.26,4.84 0,1.8 -0.42,3.39 -1.26,4.84 -0.84,1.45 -1.99,2.59 -3.44,3.42 -1.45,0.83 -3.07,1.24 -4.84,1.24 z m 0,-3.17 c 1.13,0 2.15,-0.28 3.06,-0.85 0.91,-0.56 1.63,-1.33 2.16,-2.29 0.53,-0.96 0.79,-2.04 0.79,-3.24 0,-1.2 -0.26,-2.24 -0.79,-3.19 -0.53,-0.95 -1.25,-1.71 -2.16,-2.29 -0.91,-0.58 -1.93,-0.86 -3.06,-0.86 -1.13,0 -2.12,0.29 -3.04,0.86 -0.92,0.58 -1.65,1.34 -2.18,2.29 -0.53,0.95 -0.79,2.01 -0.79,3.19 0,1.18 0.26,2.28 0.79,3.24 0.53,0.96 1.25,1.72 2.18,2.29 0.92,0.56 1.94,0.85 3.04,0.85 z"
       id="path34" />
    <path
       class="cls-2"
       d="m 137.65,48.76 v -25.2 l 3.6,-0.68 v 25.88 z"
       id="path35" />
    <path
       class="cls-2"
       d="M 153.02,48.76 V 30.44 h 3.6 v 1.87 c 1.42,-1.49 3.25,-2.23 5.51,-2.23 1.42,0 2.66,0.3 3.73,0.9 1.07,0.6 1.91,1.44 2.52,2.52 0.61,1.08 0.92,2.33 0.92,3.74 v 11.52 h -3.6 V 37.85 c 0,-1.44 -0.41,-2.57 -1.22,-3.4 -0.81,-0.83 -1.93,-1.24 -3.35,-1.24 -0.96,0 -1.82,0.21 -2.57,0.63 -0.75,0.42 -1.4,1.01 -1.93,1.78 v 13.14 h -3.6 z"
       id="path36" />
    <path
       class="cls-2"
       d="m 182.14,49.12 c -1.78,0 -3.39,-0.41 -4.84,-1.24 -1.45,-0.83 -2.6,-1.97 -3.46,-3.42 -0.85,-1.45 -1.28,-3.07 -1.28,-4.84 0,-1.77 0.42,-3.41 1.26,-4.84 0.84,-1.43 1.99,-2.57 3.46,-3.42 1.46,-0.85 3.08,-1.28 4.86,-1.28 1.78,0 3.39,0.43 4.84,1.28 1.45,0.85 2.6,1.99 3.44,3.42 0.84,1.43 1.26,3.04 1.26,4.84 0,1.8 -0.42,3.39 -1.26,4.84 -0.84,1.45 -1.99,2.59 -3.44,3.42 -1.45,0.83 -3.07,1.24 -4.84,1.24 z m 0,-3.17 c 1.13,0 2.15,-0.28 3.06,-0.85 0.91,-0.56 1.63,-1.33 2.16,-2.29 0.53,-0.96 0.79,-2.04 0.79,-3.24 0,-1.2 -0.26,-2.24 -0.79,-3.19 -0.53,-0.95 -1.25,-1.71 -2.16,-2.29 -0.91,-0.58 -1.93,-0.86 -3.06,-0.86 -1.13,0 -2.12,0.29 -3.04,0.86 -0.92,0.58 -1.65,1.34 -2.18,2.29 -0.53,0.95 -0.79,2.01 -0.79,3.19 0,1.18 0.26,2.28 0.79,3.24 0.53,0.96 1.25,1.72 2.18,2.29 0.92,0.56 1.94,0.85 3.04,0.85 z"
       id="path37" />
    <path
       class="cls-2"
       d="m 203.53,49.05 c -1.7,0 -3.27,-0.42 -4.7,-1.26 -1.43,-0.84 -2.55,-1.97 -3.37,-3.4 -0.82,-1.43 -1.22,-3.04 -1.22,-4.84 0,-1.8 0.41,-3.34 1.24,-4.77 0.83,-1.43 1.96,-2.56 3.38,-3.38 1.43,-0.83 3.01,-1.24 4.73,-1.24 1.01,0 1.98,0.15 2.92,0.45 0.94,0.3 1.8,0.75 2.59,1.35 v -8.39 l 3.6,-0.68 v 25.88 h -3.56 v -1.76 c -1.56,1.37 -3.43,2.05 -5.62,2.05 z M 204,45.92 c 1.06,0 2.02,-0.19 2.9,-0.58 0.88,-0.38 1.61,-0.92 2.21,-1.62 v -8.28 c -0.58,-0.7 -1.31,-1.24 -2.21,-1.62 -0.9,-0.38 -1.87,-0.58 -2.9,-0.58 -1.15,0 -2.2,0.27 -3.15,0.81 -0.95,0.54 -1.69,1.29 -2.23,2.25 -0.54,0.96 -0.81,2.04 -0.81,3.24 0,1.2 0.27,2.28 0.81,3.24 0.54,0.96 1.28,1.72 2.23,2.29 0.95,0.56 2,0.85 3.15,0.85 z"
       id="path38" />
    <path
       class="cls-2"
       d="m 225.74,49.08 c -1.8,0 -3.43,-0.41 -4.88,-1.24 -1.45,-0.83 -2.61,-1.97 -3.47,-3.42 -0.86,-1.45 -1.3,-3.07 -1.3,-4.84 0,-1.77 0.41,-3.37 1.24,-4.79 0.83,-1.42 1.94,-2.55 3.33,-3.4 1.39,-0.85 2.95,-1.28 4.68,-1.28 1.73,0 3.19,0.43 4.52,1.28 1.33,0.85 2.39,2 3.17,3.46 0.78,1.45 1.17,3.09 1.17,4.91 v 0.97 h -14.47 c 0.17,1.03 0.53,1.94 1.1,2.72 0.56,0.78 1.28,1.4 2.16,1.87 0.88,0.47 1.84,0.7 2.9,0.7 0.91,0 1.78,-0.14 2.59,-0.43 0.82,-0.29 1.5,-0.67 2.05,-1.15 l 2.27,2.23 c -1.06,0.82 -2.15,1.42 -3.29,1.82 -1.14,0.4 -2.39,0.59 -3.76,0.59 z m -5.98,-11.05 h 10.87 c -0.17,-0.94 -0.51,-1.77 -1.03,-2.5 -0.52,-0.73 -1.15,-1.31 -1.89,-1.73 -0.74,-0.42 -1.57,-0.63 -2.48,-0.63 -0.91,0 -1.75,0.21 -2.52,0.63 -0.77,0.42 -1.41,0.99 -1.93,1.71 -0.52,0.72 -0.86,1.56 -1.03,2.52 z"
       id="path39" />
  </g>
  <g
     id="g42"
     transform="translate(-1.1400001)">
    <path
       class="cls-2"
       d="m 134.29,290.5 v 58.33"
       id="path40" />
    <g
       id="g41">
      <path
         class="cls-4"
         d="m 134.29,290.5 v 43.98"
         id="path41" />
      <polygon
         class="cls-8"
         points="144.26,331.56 124.31,331.56 134.29,348.83 "
         id="polygon41" />
    </g>
  </g>
  <g
     id="g44"
     transform="translate(-1.1400001)">
    <path
       class="cls-2"
       d="m 297.56,290.5 v 58.33"
       id="path42" />
    <g
       id="g43">
      <path
         class="cls-4"
         d="m 297.56,290.5 v 43.98"
         id="path43" />
      <polygon
         class="cls-8"
         points="307.54,331.56 287.59,331.56 297.56,348.83 "
         id="polygon43" />
    </g>
  </g>
  <g
     id="g45"
     transform="translate(-1.1400001)">
    <path
       class="cls-4"
       d="m 463,290.5 v 43.98"
       id="path44" />
    <polygon
       class="cls-8"
       points="472.97,331.56 453.03,331.56 463,348.83 "
       id="polygon44" />
  </g>
  <path
     class="cls-3"
     d="m 132.15,291 h 330.7"
     id="path45" />
  <g
     id="g58"
     transform="translate(-1.1400001)">
    <rect
       class="cls-8"
       x="44.599998"
       y="362.23001"
       width="505.94"
       height="38.18"
       id="rect45" />
    <g
       id="g57">
      <path
         class="cls-2"
         d="m 58.11,386.82 v -12.6 h 2.5 l 3.96,8.06 3.94,-8.06 h 2.54 v 12.6 h -1.82 v -10.3 l -4.68,9.4 -4.7,-9.4 v 10.3 H 58.1 Z"
         id="path46" />
      <path
         class="cls-2"
         d="m 76.11,386.98 c -0.67,0 -1.26,-0.12 -1.76,-0.35 -0.5,-0.23 -0.9,-0.56 -1.19,-0.98 -0.29,-0.42 -0.43,-0.91 -0.43,-1.46 0,-0.86 0.33,-1.54 1,-2.03 0.67,-0.49 1.57,-0.74 2.71,-0.74 0.9,0 1.73,0.16 2.48,0.49 v -0.95 c 0,-0.66 -0.19,-1.15 -0.56,-1.48 -0.37,-0.32 -0.92,-0.49 -1.66,-0.49 -0.42,0 -0.85,0.06 -1.3,0.19 -0.45,0.13 -0.96,0.32 -1.52,0.58 l -0.68,-1.35 c 0.68,-0.32 1.33,-0.56 1.94,-0.71 0.61,-0.15 1.21,-0.22 1.83,-0.22 1.19,0 2.11,0.28 2.76,0.85 0.65,0.56 0.98,1.37 0.98,2.41 v 6.08 h -1.78 v -0.79 c -0.4,0.32 -0.83,0.56 -1.3,0.72 -0.47,0.16 -0.97,0.23 -1.51,0.23 z m -1.67,-2.84 c 0,0.46 0.19,0.82 0.58,1.1 0.38,0.28 0.88,0.41 1.49,0.41 0.48,0 0.92,-0.07 1.33,-0.22 0.41,-0.14 0.77,-0.37 1.08,-0.67 v -1.55 c -0.34,-0.19 -0.7,-0.34 -1.08,-0.43 -0.38,-0.1 -0.8,-0.14 -1.24,-0.14 -0.67,0 -1.2,0.14 -1.58,0.41 -0.38,0.28 -0.58,0.64 -0.58,1.08 z"
         id="path47" />
      <path
         class="cls-2"
         d="m 82.77,386.82 v -9.16 h 1.8 v 0.94 c 0.71,-0.74 1.63,-1.12 2.75,-1.12 0.71,0 1.33,0.15 1.86,0.45 0.53,0.3 0.95,0.72 1.26,1.26 0.31,0.54 0.46,1.16 0.46,1.87 v 5.76 h -1.8 v -5.45 c 0,-0.72 -0.2,-1.29 -0.61,-1.7 -0.41,-0.41 -0.97,-0.62 -1.67,-0.62 -0.48,0 -0.91,0.11 -1.29,0.32 -0.38,0.21 -0.7,0.51 -0.96,0.89 v 6.57 h -1.8 z"
         id="path48" />
      <path
         class="cls-2"
         d="m 95.89,386.98 c -0.67,0 -1.26,-0.12 -1.76,-0.35 -0.5,-0.23 -0.9,-0.56 -1.19,-0.98 -0.29,-0.42 -0.43,-0.91 -0.43,-1.46 0,-0.86 0.33,-1.54 1,-2.03 0.67,-0.49 1.57,-0.74 2.71,-0.74 0.9,0 1.73,0.16 2.48,0.49 v -0.95 c 0,-0.66 -0.19,-1.15 -0.56,-1.48 -0.37,-0.32 -0.92,-0.49 -1.66,-0.49 -0.42,0 -0.85,0.06 -1.3,0.19 -0.45,0.13 -0.96,0.32 -1.52,0.58 l -0.68,-1.35 c 0.68,-0.32 1.33,-0.56 1.94,-0.71 0.61,-0.15 1.21,-0.22 1.83,-0.22 1.19,0 2.11,0.28 2.76,0.85 0.65,0.56 0.98,1.37 0.98,2.41 v 6.08 h -1.78 v -0.79 c -0.4,0.32 -0.83,0.56 -1.3,0.72 -0.47,0.16 -0.97,0.23 -1.51,0.23 z m -1.67,-2.84 c 0,0.46 0.19,0.82 0.58,1.1 0.38,0.28 0.88,0.41 1.49,0.41 0.48,0 0.92,-0.07 1.33,-0.22 0.41,-0.14 0.77,-0.37 1.08,-0.67 v -1.55 c -0.34,-0.19 -0.7,-0.34 -1.08,-0.43 -0.38,-0.1 -0.8,-0.14 -1.24,-0.14 -0.67,0 -1.2,0.14 -1.58,0.41 -0.38,0.28 -0.58,0.64 -0.58,1.08 z"
         id="path49" />
      <path
         class="cls-2"
         d="m 107.07,390.67 c -0.66,0 -1.31,-0.08 -1.94,-0.23 -0.64,-0.16 -1.21,-0.38 -1.73,-0.67 l 0.7,-1.4 c 0.53,0.26 1.03,0.46 1.5,0.58 0.47,0.12 0.95,0.19 1.41,0.19 0.82,0 1.43,-0.18 1.85,-0.54 0.41,-0.36 0.62,-0.9 0.62,-1.62 v -1.04 c -0.79,0.64 -1.71,0.95 -2.75,0.95 -0.85,0 -1.63,-0.21 -2.32,-0.63 -0.7,-0.42 -1.25,-0.99 -1.67,-1.7 -0.42,-0.71 -0.62,-1.5 -0.62,-2.37 0,-0.87 0.21,-1.67 0.63,-2.38 0.42,-0.71 0.98,-1.28 1.68,-1.69 0.7,-0.41 1.49,-0.62 2.35,-0.62 0.5,0 0.99,0.08 1.45,0.23 0.46,0.16 0.89,0.39 1.29,0.7 v -0.77 h 1.76 v 9.31 c 0,1.2 -0.36,2.12 -1.08,2.75 -0.72,0.64 -1.76,0.95 -3.13,0.95 z m -0.11,-5.33 c 0.52,0 0.99,-0.1 1.43,-0.29 0.44,-0.19 0.8,-0.46 1.09,-0.79 v -4.14 c -0.28,-0.32 -0.64,-0.58 -1.08,-0.77 -0.44,-0.19 -0.92,-0.29 -1.44,-0.29 -0.58,0 -1.1,0.13 -1.56,0.41 -0.46,0.27 -0.83,0.64 -1.1,1.12 -0.27,0.47 -0.4,1.01 -0.4,1.61 0,0.6 0.13,1.12 0.4,1.59 0.27,0.47 0.64,0.85 1.11,1.13 0.47,0.28 0.98,0.42 1.55,0.42 z"
         id="path50" />
      <path
         class="cls-2"
         d="m 117.8,386.98 c -0.9,0 -1.71,-0.21 -2.44,-0.62 -0.73,-0.41 -1.31,-0.98 -1.74,-1.71 -0.43,-0.73 -0.65,-1.53 -0.65,-2.42 0,-0.89 0.21,-1.69 0.62,-2.39 0.41,-0.71 0.97,-1.27 1.67,-1.7 0.7,-0.43 1.48,-0.64 2.34,-0.64 0.86,0 1.59,0.21 2.26,0.64 0.67,0.43 1.19,1 1.58,1.73 0.39,0.73 0.58,1.54 0.58,2.46 v 0.49 h -7.24 c 0.08,0.52 0.27,0.97 0.55,1.36 0.28,0.39 0.64,0.7 1.08,0.94 0.44,0.23 0.92,0.35 1.45,0.35 0.46,0 0.89,-0.07 1.3,-0.22 0.41,-0.14 0.75,-0.34 1.03,-0.58 l 1.13,1.12 c -0.53,0.41 -1.08,0.71 -1.65,0.91 -0.57,0.2 -1.2,0.3 -1.88,0.3 z m -2.99,-5.53 h 5.44 c -0.08,-0.47 -0.25,-0.88 -0.51,-1.25 -0.26,-0.37 -0.57,-0.65 -0.95,-0.86 -0.38,-0.21 -0.79,-0.32 -1.24,-0.32 -0.45,0 -0.88,0.11 -1.26,0.32 -0.38,0.21 -0.71,0.49 -0.96,0.85 -0.26,0.36 -0.43,0.78 -0.51,1.26 z"
         id="path51" />
      <path
         class="cls-2"
         d="m 127.95,386.96 c -0.85,0 -1.64,-0.21 -2.35,-0.63 -0.71,-0.42 -1.27,-0.99 -1.68,-1.7 -0.41,-0.71 -0.61,-1.52 -0.61,-2.42 0,-0.9 0.21,-1.67 0.62,-2.38 0.41,-0.71 0.98,-1.28 1.69,-1.69 0.71,-0.41 1.5,-0.62 2.37,-0.62 0.5,0 0.99,0.08 1.46,0.22 0.47,0.15 0.9,0.38 1.3,0.67 v -4.19 l 1.8,-0.34 v 12.94 h -1.78 v -0.88 c -0.78,0.68 -1.72,1.03 -2.81,1.03 z m 0.23,-1.57 c 0.53,0 1.01,-0.1 1.45,-0.29 0.44,-0.19 0.81,-0.46 1.11,-0.81 v -4.14 c -0.29,-0.35 -0.66,-0.62 -1.11,-0.81 -0.45,-0.19 -0.93,-0.29 -1.45,-0.29 -0.58,0 -1.1,0.13 -1.57,0.41 -0.47,0.27 -0.85,0.64 -1.12,1.12 -0.27,0.48 -0.4,1.02 -0.4,1.62 0,0.6 0.13,1.14 0.4,1.62 0.27,0.48 0.64,0.86 1.12,1.14 0.47,0.28 1,0.42 1.57,0.42 z"
         id="path52" />
      <path
         class="cls-2"
         d="m 138.42,386.82 v -9.16 h 1.8 v 0.94 c 0.71,-0.74 1.63,-1.12 2.75,-1.12 0.71,0 1.33,0.15 1.86,0.45 0.53,0.3 0.95,0.72 1.26,1.26 0.31,0.54 0.46,1.16 0.46,1.87 v 5.76 h -1.8 v -5.45 c 0,-0.72 -0.2,-1.29 -0.61,-1.7 -0.41,-0.41 -0.97,-0.62 -1.67,-0.62 -0.48,0 -0.91,0.11 -1.29,0.32 -0.38,0.21 -0.7,0.51 -0.96,0.89 v 6.57 h -1.8 z"
         id="path53" />
      <path
         class="cls-2"
         d="m 152.98,387 c -0.89,0 -1.69,-0.21 -2.42,-0.62 -0.73,-0.41 -1.3,-0.98 -1.73,-1.71 -0.43,-0.73 -0.64,-1.53 -0.64,-2.42 0,-0.89 0.21,-1.71 0.63,-2.42 0.42,-0.71 1,-1.28 1.73,-1.71 0.73,-0.43 1.54,-0.64 2.43,-0.64 0.89,0 1.69,0.21 2.42,0.64 0.73,0.43 1.3,1 1.72,1.71 0.42,0.71 0.63,1.52 0.63,2.42 0,0.9 -0.21,1.7 -0.63,2.42 -0.42,0.73 -0.99,1.3 -1.72,1.71 -0.73,0.41 -1.53,0.62 -2.42,0.62 z m 0,-1.58 c 0.56,0 1.07,-0.14 1.53,-0.42 0.46,-0.28 0.82,-0.66 1.08,-1.14 0.26,-0.48 0.4,-1.02 0.4,-1.62 0,-0.6 -0.13,-1.12 -0.4,-1.59 -0.26,-0.47 -0.62,-0.86 -1.08,-1.14 -0.46,-0.29 -0.97,-0.43 -1.53,-0.43 -0.56,0 -1.06,0.14 -1.52,0.43 -0.46,0.29 -0.83,0.67 -1.09,1.14 -0.26,0.47 -0.4,1 -0.4,1.59 0,0.59 0.13,1.14 0.4,1.62 0.26,0.48 0.63,0.86 1.09,1.14 0.46,0.28 0.97,0.42 1.52,0.42 z"
         id="path54" />
      <path
         class="cls-2"
         d="m 163.68,386.96 c -0.85,0 -1.64,-0.21 -2.35,-0.63 -0.71,-0.42 -1.27,-0.99 -1.68,-1.7 -0.41,-0.71 -0.61,-1.52 -0.61,-2.42 0,-0.9 0.21,-1.67 0.62,-2.38 0.41,-0.71 0.98,-1.28 1.69,-1.69 0.71,-0.41 1.5,-0.62 2.37,-0.62 0.5,0 0.99,0.08 1.46,0.22 0.47,0.15 0.9,0.38 1.3,0.67 v -4.19 l 1.8,-0.34 v 12.94 h -1.78 v -0.88 c -0.78,0.68 -1.72,1.03 -2.81,1.03 z m 0.23,-1.57 c 0.53,0 1.01,-0.1 1.45,-0.29 0.44,-0.19 0.81,-0.46 1.11,-0.81 v -4.14 c -0.29,-0.35 -0.66,-0.62 -1.11,-0.81 -0.45,-0.19 -0.93,-0.29 -1.45,-0.29 -0.58,0 -1.1,0.13 -1.57,0.41 -0.47,0.27 -0.85,0.64 -1.12,1.12 -0.27,0.48 -0.4,1.02 -0.4,1.62 0,0.6 0.13,1.14 0.4,1.62 0.27,0.48 0.64,0.86 1.12,1.14 0.47,0.28 1,0.42 1.57,0.42 z"
         id="path55" />
      <path
         class="cls-2"
         d="m 174.78,386.98 c -0.9,0 -1.71,-0.21 -2.44,-0.62 -0.73,-0.41 -1.31,-0.98 -1.74,-1.71 -0.43,-0.73 -0.65,-1.53 -0.65,-2.42 0,-0.89 0.21,-1.69 0.62,-2.39 0.41,-0.71 0.97,-1.27 1.67,-1.7 0.7,-0.43 1.48,-0.64 2.34,-0.64 0.86,0 1.59,0.21 2.26,0.64 0.67,0.43 1.19,1 1.58,1.73 0.39,0.73 0.58,1.54 0.58,2.46 v 0.49 h -7.24 c 0.08,0.52 0.27,0.97 0.55,1.36 0.28,0.39 0.64,0.7 1.08,0.94 0.44,0.23 0.92,0.35 1.45,0.35 0.46,0 0.89,-0.07 1.3,-0.22 0.41,-0.14 0.75,-0.34 1.03,-0.58 l 1.13,1.12 c -0.53,0.41 -1.08,0.71 -1.65,0.91 -0.57,0.2 -1.2,0.3 -1.88,0.3 z m -2.99,-5.53 h 5.44 c -0.08,-0.47 -0.25,-0.88 -0.51,-1.25 -0.26,-0.37 -0.57,-0.65 -0.95,-0.86 -0.38,-0.21 -0.79,-0.32 -1.24,-0.32 -0.45,0 -0.88,0.11 -1.26,0.32 -0.38,0.21 -0.71,0.49 -0.96,0.85 -0.26,0.36 -0.43,0.78 -0.51,1.26 z"
         id="path56" />
      <path
         class="cls-2"
         d="m 183.94,387 c -0.79,0 -1.53,-0.12 -2.22,-0.35 -0.69,-0.23 -1.29,-0.57 -1.79,-1.02 l 0.97,-1.19 c 0.48,0.38 0.97,0.67 1.47,0.86 0.5,0.19 1,0.29 1.52,0.29 0.65,0 1.18,-0.12 1.58,-0.37 0.41,-0.25 0.61,-0.57 0.61,-0.98 0,-0.34 -0.12,-0.6 -0.36,-0.79 -0.24,-0.19 -0.61,-0.32 -1.12,-0.4 l -1.66,-0.23 c -0.92,-0.13 -1.61,-0.41 -2.06,-0.85 -0.45,-0.43 -0.68,-1.01 -0.68,-1.73 0,-0.54 0.15,-1.02 0.45,-1.44 0.3,-0.42 0.72,-0.74 1.26,-0.97 0.54,-0.23 1.16,-0.34 1.87,-0.34 0.71,0 1.31,0.09 1.93,0.28 0.61,0.19 1.2,0.48 1.76,0.89 l -0.9,1.19 c -0.52,-0.34 -1.01,-0.58 -1.48,-0.74 -0.47,-0.16 -0.95,-0.23 -1.44,-0.23 -0.55,0 -1,0.12 -1.33,0.35 -0.33,0.23 -0.5,0.54 -0.5,0.91 0,0.35 0.12,0.61 0.36,0.78 0.24,0.17 0.62,0.3 1.13,0.39 l 1.67,0.25 c 0.91,0.12 1.6,0.4 2.07,0.83 0.47,0.43 0.7,1.01 0.7,1.73 0,0.54 -0.17,1.03 -0.51,1.47 -0.34,0.44 -0.8,0.78 -1.37,1.04 -0.57,0.25 -1.22,0.38 -1.95,0.38 z"
         id="path57" />
    </g>
  </g>
  <g
     id="g95"
     transform="translate(-1.1400001)">
    <g
       id="g70">
      <g
         id="Page-1">
        <g
           id="Icon-Red_Hat-App-A-Black-RGB"
           data-name="Icon-Red Hat-App-A-Black-RGB">
          <path
             id="Path"
             class="cls-5"
             d="m 151.71,438.27 c -0.72,0.01 -1.3,0.55 -1.3,1.22 0.08,0.61 0.64,1.07 1.31,1.07 0.67,0 1.22,-0.46 1.31,-1.07 0,-0.67 -0.59,-1.22 -1.32,-1.22 z" />
          <path
             id="Path-2"
             data-name="Path"
             class="cls-5"
             d="m 157.2,438.27 c -0.72,0.01 -1.3,0.55 -1.3,1.22 0.08,0.61 0.64,1.07 1.31,1.07 0.67,0 1.22,-0.46 1.31,-1.07 0,-0.67 -0.59,-1.22 -1.32,-1.22 z" />
          <path
             id="Shape"
             class="cls-5"
             d="M 167.92,427.75 H 96.33 c -0.45,0 -0.89,0.17 -1.22,0.49 -0.32,0.32 -0.5,0.76 -0.49,1.22 v 71.59 c 0,0.45 0.17,0.89 0.49,1.22 0.32,0.32 0.76,0.5 1.22,0.49 h 71.59 c 0.45,0 0.89,-0.17 1.22,-0.49 0.33,-0.32 0.5,-0.76 0.49,-1.22 v -71.59 c 0,-0.45 -0.17,-0.89 -0.49,-1.22 -0.32,-0.32 -0.76,-0.5 -1.22,-0.49 z m 0.09,73.41 h -71.8 v -71.8 h 71.8 z" />
        </g>
      </g>
      <g
         id="g69">
        <path
           class="cls-5"
           d="M 104.1,461.8 V 452 h 1.51 l 3.35,6.96 3.33,-6.96 h 1.51 v 9.8 h -1.02 v -8.57 l -3.84,7.87 -3.84,-7.85 v 8.55 h -1.01 z"
           id="path58" />
        <path
           class="cls-5"
           d="m 117.83,461.93 c -0.51,0 -0.96,-0.09 -1.35,-0.27 -0.39,-0.18 -0.69,-0.42 -0.91,-0.74 -0.22,-0.32 -0.33,-0.69 -0.33,-1.11 0,-0.66 0.25,-1.18 0.76,-1.57 0.5,-0.38 1.19,-0.57 2.04,-0.57 0.76,0 1.44,0.16 2.06,0.48 v -0.92 c 0,-0.56 -0.16,-0.98 -0.48,-1.27 -0.32,-0.29 -0.78,-0.43 -1.39,-0.43 -0.35,0 -0.69,0.05 -1.04,0.15 -0.35,0.1 -0.73,0.25 -1.16,0.47 l -0.39,-0.8 c 0.5,-0.24 0.97,-0.42 1.4,-0.53 0.43,-0.11 0.86,-0.17 1.29,-0.17 0.89,0 1.57,0.21 2.05,0.63 0.48,0.42 0.72,1.02 0.72,1.81 v 4.72 h -1.01 v -0.69 c -0.32,0.27 -0.67,0.47 -1.04,0.61 -0.38,0.14 -0.79,0.2 -1.22,0.2 z m -1.6,-2.14 c 0,0.39 0.17,0.71 0.5,0.96 0.33,0.25 0.76,0.37 1.28,0.37 0.42,0 0.8,-0.07 1.15,-0.2 0.35,-0.13 0.66,-0.34 0.94,-0.62 v -1.32 c -0.29,-0.2 -0.6,-0.34 -0.92,-0.43 -0.32,-0.09 -0.7,-0.13 -1.11,-0.13 -0.56,0 -1.01,0.12 -1.34,0.37 -0.33,0.25 -0.5,0.58 -0.5,0.99 z"
           id="path59" />
        <path
           class="cls-5"
           d="m 122.84,461.8 v -7.01 h 1.04 v 0.83 c 0.55,-0.64 1.29,-0.97 2.21,-0.97 0.53,0 1,0.11 1.41,0.34 0.41,0.23 0.72,0.55 0.95,0.95 0.23,0.41 0.34,0.88 0.34,1.42 v 4.44 h -1.02 v -4.23 c 0,-0.63 -0.18,-1.12 -0.52,-1.48 -0.35,-0.36 -0.83,-0.54 -1.44,-0.54 -0.42,0 -0.79,0.09 -1.12,0.28 -0.33,0.19 -0.6,0.45 -0.81,0.8 v 5.17 z"
           id="path60" />
        <path
           class="cls-5"
           d="m 132.74,461.93 c -0.51,0 -0.96,-0.09 -1.35,-0.27 -0.39,-0.18 -0.69,-0.42 -0.91,-0.74 -0.22,-0.32 -0.33,-0.69 -0.33,-1.11 0,-0.66 0.25,-1.18 0.76,-1.57 0.5,-0.38 1.19,-0.57 2.04,-0.57 0.76,0 1.44,0.16 2.06,0.48 v -0.92 c 0,-0.56 -0.16,-0.98 -0.48,-1.27 -0.32,-0.29 -0.78,-0.43 -1.39,-0.43 -0.35,0 -0.69,0.05 -1.04,0.15 -0.35,0.1 -0.73,0.25 -1.16,0.47 l -0.39,-0.8 c 0.5,-0.24 0.97,-0.42 1.4,-0.53 0.43,-0.11 0.86,-0.17 1.29,-0.17 0.89,0 1.57,0.21 2.05,0.63 0.48,0.42 0.72,1.02 0.72,1.81 v 4.72 H 135 v -0.69 c -0.32,0.27 -0.67,0.47 -1.04,0.61 -0.38,0.14 -0.79,0.2 -1.22,0.2 z m -1.6,-2.14 c 0,0.39 0.17,0.71 0.5,0.96 0.33,0.25 0.76,0.37 1.28,0.37 0.42,0 0.8,-0.07 1.15,-0.2 0.35,-0.13 0.66,-0.34 0.94,-0.62 v -1.32 c -0.29,-0.2 -0.6,-0.34 -0.92,-0.43 -0.32,-0.09 -0.7,-0.13 -1.11,-0.13 -0.56,0 -1.01,0.12 -1.34,0.37 -0.33,0.25 -0.5,0.58 -0.5,0.99 z"
           id="path61" />
        <path
           class="cls-5"
           d="m 141.17,464.8 c -0.49,0 -0.97,-0.06 -1.44,-0.19 -0.47,-0.13 -0.91,-0.31 -1.3,-0.54 l 0.45,-0.81 c 0.42,0.22 0.81,0.39 1.17,0.49 0.36,0.1 0.72,0.15 1.08,0.15 0.66,0 1.17,-0.16 1.51,-0.48 0.35,-0.32 0.52,-0.78 0.52,-1.4 v -0.98 c -0.64,0.54 -1.39,0.81 -2.23,0.81 -0.64,0 -1.23,-0.16 -1.76,-0.48 -0.53,-0.32 -0.95,-0.75 -1.27,-1.29 -0.31,-0.55 -0.47,-1.16 -0.47,-1.83 0,-0.67 0.16,-1.28 0.47,-1.83 0.31,-0.55 0.74,-0.98 1.27,-1.29 0.53,-0.32 1.13,-0.48 1.79,-0.48 0.4,0 0.79,0.07 1.17,0.21 0.38,0.14 0.73,0.34 1.04,0.62 v -0.7 h 1.02 V 462 c 0,0.9 -0.26,1.58 -0.78,2.07 -0.52,0.48 -1.27,0.72 -2.24,0.72 z m -0.15,-3.85 c 0.45,0 0.86,-0.08 1.23,-0.25 0.37,-0.17 0.68,-0.41 0.91,-0.71 v -3.44 c -0.23,-0.3 -0.54,-0.53 -0.92,-0.7 -0.38,-0.17 -0.79,-0.25 -1.23,-0.25 -0.49,0 -0.92,0.12 -1.31,0.35 -0.39,0.23 -0.69,0.55 -0.92,0.96 -0.23,0.41 -0.34,0.86 -0.34,1.37 0,0.51 0.11,0.96 0.34,1.37 0.23,0.41 0.54,0.73 0.92,0.97 0.39,0.24 0.82,0.36 1.29,0.36 z"
           id="path62" />
        <path
           class="cls-5"
           d="m 149.25,461.93 c -0.67,0 -1.28,-0.16 -1.83,-0.48 -0.55,-0.32 -0.98,-0.76 -1.3,-1.31 -0.32,-0.55 -0.48,-1.17 -0.48,-1.85 0,-0.68 0.15,-1.28 0.46,-1.83 0.31,-0.55 0.72,-0.98 1.25,-1.3 0.52,-0.32 1.11,-0.48 1.75,-0.48 0.64,0 1.19,0.16 1.69,0.48 0.5,0.32 0.9,0.76 1.19,1.3 0.29,0.54 0.44,1.16 0.44,1.83 v 0.32 h -5.75 c 0.06,0.46 0.2,0.87 0.44,1.23 0.24,0.36 0.55,0.65 0.93,0.86 0.38,0.21 0.8,0.31 1.26,0.31 0.36,0 0.72,-0.06 1.06,-0.17 0.34,-0.11 0.63,-0.27 0.87,-0.48 l 0.64,0.69 c -0.39,0.29 -0.8,0.51 -1.23,0.65 -0.43,0.14 -0.89,0.22 -1.39,0.22 z m -2.56,-4.14 h 4.69 c -0.06,-0.42 -0.19,-0.8 -0.41,-1.13 -0.22,-0.33 -0.49,-0.59 -0.82,-0.78 -0.33,-0.19 -0.69,-0.29 -1.08,-0.29 -0.39,0 -0.77,0.09 -1.11,0.28 -0.34,0.19 -0.62,0.45 -0.84,0.78 -0.22,0.33 -0.37,0.71 -0.43,1.14 z"
           id="path63" />
        <path
           class="cls-5"
           d="m 157.06,461.92 c -0.65,0 -1.25,-0.16 -1.78,-0.48 -0.54,-0.32 -0.96,-0.76 -1.27,-1.3 -0.31,-0.55 -0.47,-1.16 -0.47,-1.84 0,-0.68 0.16,-1.29 0.47,-1.83 0.31,-0.54 0.74,-0.97 1.27,-1.29 0.54,-0.32 1.14,-0.48 1.8,-0.48 0.41,0 0.81,0.07 1.19,0.2 0.38,0.13 0.73,0.33 1.05,0.59 v -3.47 l 1.04,-0.24 v 10.04 h -1.02 v -0.74 c -0.62,0.57 -1.37,0.85 -2.27,0.85 z m 0.1,-0.91 c 0.44,0 0.85,-0.09 1.23,-0.26 0.38,-0.17 0.69,-0.41 0.93,-0.72 v -3.47 c -0.24,-0.3 -0.55,-0.53 -0.93,-0.71 -0.38,-0.18 -0.79,-0.26 -1.23,-0.26 -0.49,0 -0.93,0.12 -1.32,0.35 -0.4,0.23 -0.71,0.55 -0.94,0.96 -0.23,0.41 -0.34,0.87 -0.34,1.38 0,0.51 0.11,0.98 0.34,1.39 0.23,0.41 0.54,0.74 0.94,0.98 0.4,0.24 0.84,0.36 1.32,0.36 z"
           id="path64" />
        <path
           class="cls-5"
           d="m 103.9,478.6 v -7.01 h 1.04 v 0.83 c 0.55,-0.64 1.29,-0.97 2.21,-0.97 0.53,0 1,0.11 1.41,0.34 0.41,0.23 0.72,0.55 0.95,0.95 0.23,0.41 0.34,0.88 0.34,1.42 v 4.44 h -1.02 v -4.23 c 0,-0.63 -0.18,-1.12 -0.52,-1.48 -0.35,-0.36 -0.83,-0.54 -1.44,-0.54 -0.42,0 -0.79,0.09 -1.12,0.28 -0.33,0.19 -0.6,0.45 -0.81,0.8 v 5.17 z"
           id="path65" />
        <path
           class="cls-5"
           d="m 114.85,478.74 c -0.66,0 -1.27,-0.16 -1.81,-0.48 -0.55,-0.32 -0.98,-0.76 -1.29,-1.31 -0.32,-0.55 -0.48,-1.17 -0.48,-1.85 0,-0.68 0.16,-1.3 0.48,-1.85 0.32,-0.55 0.75,-0.99 1.29,-1.31 0.55,-0.32 1.15,-0.48 1.81,-0.48 0.66,0 1.28,0.16 1.82,0.48 0.54,0.32 0.97,0.76 1.29,1.31 0.32,0.55 0.48,1.17 0.48,1.85 0,0.68 -0.16,1.3 -0.48,1.85 -0.32,0.55 -0.75,0.99 -1.29,1.31 -0.54,0.32 -1.15,0.48 -1.82,0.48 z m 0,-0.92 c 0.48,0 0.91,-0.12 1.29,-0.36 0.39,-0.24 0.7,-0.57 0.92,-0.98 0.23,-0.41 0.34,-0.87 0.34,-1.37 0,-0.5 -0.11,-0.97 -0.34,-1.38 -0.23,-0.41 -0.54,-0.73 -0.92,-0.97 -0.39,-0.24 -0.82,-0.36 -1.29,-0.36 -0.47,0 -0.91,0.12 -1.29,0.36 -0.39,0.24 -0.7,0.57 -0.92,0.97 -0.23,0.41 -0.34,0.87 -0.34,1.38 0,0.51 0.11,0.96 0.34,1.37 0.23,0.41 0.54,0.74 0.92,0.98 0.39,0.24 0.82,0.36 1.29,0.36 z"
           id="path66" />
        <path
           class="cls-5"
           d="m 123.08,478.71 c -0.65,0 -1.25,-0.16 -1.78,-0.48 -0.54,-0.32 -0.96,-0.76 -1.27,-1.3 -0.31,-0.55 -0.47,-1.16 -0.47,-1.84 0,-0.68 0.16,-1.29 0.47,-1.83 0.31,-0.54 0.74,-0.97 1.27,-1.29 0.54,-0.32 1.14,-0.48 1.8,-0.48 0.41,0 0.81,0.07 1.19,0.2 0.38,0.13 0.73,0.33 1.05,0.59 v -3.47 l 1.04,-0.24 v 10.04 h -1.02 v -0.74 c -0.62,0.57 -1.37,0.85 -2.27,0.85 z m 0.1,-0.91 c 0.44,0 0.85,-0.09 1.23,-0.26 0.38,-0.17 0.69,-0.41 0.93,-0.72 v -3.47 c -0.24,-0.3 -0.55,-0.53 -0.93,-0.71 -0.38,-0.18 -0.79,-0.26 -1.23,-0.26 -0.49,0 -0.93,0.12 -1.32,0.35 -0.4,0.23 -0.71,0.55 -0.94,0.96 -0.23,0.41 -0.34,0.87 -0.34,1.38 0,0.51 0.11,0.98 0.34,1.39 0.23,0.41 0.54,0.74 0.94,0.98 0.4,0.24 0.84,0.36 1.32,0.36 z"
           id="path67" />
        <path
           class="cls-5"
           d="m 131.43,478.73 c -0.67,0 -1.28,-0.16 -1.83,-0.48 -0.55,-0.32 -0.98,-0.76 -1.3,-1.31 -0.32,-0.55 -0.48,-1.17 -0.48,-1.85 0,-0.68 0.15,-1.28 0.46,-1.83 0.31,-0.55 0.72,-0.98 1.25,-1.3 0.52,-0.32 1.11,-0.48 1.75,-0.48 0.64,0 1.19,0.16 1.69,0.48 0.5,0.32 0.9,0.76 1.19,1.3 0.29,0.54 0.44,1.16 0.44,1.83 v 0.32 h -5.75 c 0.06,0.46 0.2,0.87 0.44,1.23 0.24,0.36 0.55,0.65 0.93,0.86 0.38,0.21 0.8,0.31 1.26,0.31 0.36,0 0.72,-0.06 1.06,-0.17 0.34,-0.11 0.63,-0.27 0.87,-0.48 l 0.64,0.69 c -0.39,0.29 -0.8,0.51 -1.23,0.65 -0.43,0.14 -0.89,0.22 -1.39,0.22 z m -2.56,-4.14 h 4.69 c -0.06,-0.42 -0.19,-0.8 -0.41,-1.13 -0.22,-0.33 -0.49,-0.59 -0.82,-0.78 -0.33,-0.19 -0.69,-0.29 -1.08,-0.29 -0.39,0 -0.77,0.09 -1.11,0.28 -0.34,0.19 -0.62,0.45 -0.84,0.78 -0.22,0.33 -0.37,0.71 -0.43,1.14 z"
           id="path68" />
        <path
           class="cls-5"
           d="m 140.2,478.6 v -8.72 l -1.65,0.73 v -0.94 l 2.02,-0.87 h 0.66 v 9.8 h -1.02 z"
           id="path69" />
      </g>
    </g>
    <g
       id="g82">
      <g
         id="Page-1-2"
         data-name="Page-1">
        <g
           id="Icon-Red_Hat-App-A-Black-RGB-2"
           data-name="Icon-Red Hat-App-A-Black-RGB">
          <path
             id="Path-3"
             data-name="Path"
             class="cls-5"
             d="m 317.19,438.27 c -0.72,0.01 -1.3,0.55 -1.3,1.22 0.08,0.61 0.64,1.07 1.31,1.07 0.67,0 1.22,-0.46 1.31,-1.07 0,-0.67 -0.59,-1.22 -1.32,-1.22 z" />
          <path
             id="Path-4"
             data-name="Path"
             class="cls-5"
             d="m 322.68,438.27 c -0.72,0.01 -1.3,0.55 -1.3,1.22 0.08,0.61 0.64,1.07 1.31,1.07 0.67,0 1.22,-0.46 1.31,-1.07 0,-0.67 -0.59,-1.22 -1.32,-1.22 z" />
          <path
             id="Shape-2"
             data-name="Shape"
             class="cls-5"
             d="M 333.39,427.75 H 261.8 c -0.45,0 -0.89,0.17 -1.22,0.49 -0.32,0.32 -0.5,0.76 -0.49,1.22 v 71.59 c 0,0.45 0.17,0.89 0.49,1.22 0.32,0.32 0.76,0.5 1.22,0.49 h 71.59 c 0.45,0 0.89,-0.17 1.22,-0.49 0.33,-0.32 0.5,-0.76 0.49,-1.22 v -71.59 c 0,-0.45 -0.17,-0.89 -0.49,-1.22 -0.32,-0.32 -0.76,-0.5 -1.22,-0.49 z m 0.09,73.41 h -71.8 v -71.8 h 71.8 z" />
        </g>
      </g>
      <g
         id="g81">
        <path
           class="cls-5"
           d="M 269.57,461.8 V 452 h 1.51 l 3.35,6.96 3.33,-6.96 h 1.51 v 9.8 h -1.02 v -8.57 l -3.84,7.87 -3.84,-7.85 v 8.55 h -1.01 z"
           id="path70" />
        <path
           class="cls-5"
           d="m 283.31,461.93 c -0.51,0 -0.96,-0.09 -1.35,-0.27 -0.39,-0.18 -0.69,-0.42 -0.91,-0.74 -0.22,-0.32 -0.33,-0.69 -0.33,-1.11 0,-0.66 0.25,-1.18 0.76,-1.57 0.5,-0.38 1.19,-0.57 2.04,-0.57 0.76,0 1.44,0.16 2.06,0.48 v -0.92 c 0,-0.56 -0.16,-0.98 -0.48,-1.27 -0.32,-0.29 -0.78,-0.43 -1.39,-0.43 -0.35,0 -0.69,0.05 -1.04,0.15 -0.35,0.1 -0.73,0.25 -1.16,0.47 l -0.39,-0.8 c 0.5,-0.24 0.97,-0.42 1.4,-0.53 0.43,-0.11 0.86,-0.17 1.29,-0.17 0.89,0 1.57,0.21 2.05,0.63 0.48,0.42 0.72,1.02 0.72,1.81 v 4.72 h -1.01 v -0.69 c -0.32,0.27 -0.67,0.47 -1.04,0.61 -0.38,0.14 -0.79,0.2 -1.22,0.2 z m -1.6,-2.14 c 0,0.39 0.17,0.71 0.5,0.96 0.33,0.25 0.76,0.37 1.28,0.37 0.42,0 0.8,-0.07 1.15,-0.2 0.35,-0.13 0.66,-0.34 0.94,-0.62 v -1.32 c -0.29,-0.2 -0.6,-0.34 -0.92,-0.43 -0.32,-0.09 -0.7,-0.13 -1.11,-0.13 -0.56,0 -1.01,0.12 -1.34,0.37 -0.33,0.25 -0.5,0.58 -0.5,0.99 z"
           id="path71" />
        <path
           class="cls-5"
           d="m 288.32,461.8 v -7.01 h 1.04 v 0.83 c 0.55,-0.64 1.29,-0.97 2.21,-0.97 0.53,0 1,0.11 1.41,0.34 0.41,0.23 0.72,0.55 0.95,0.95 0.23,0.41 0.34,0.88 0.34,1.42 v 4.44 h -1.02 v -4.23 c 0,-0.63 -0.18,-1.12 -0.52,-1.48 -0.35,-0.36 -0.83,-0.54 -1.44,-0.54 -0.42,0 -0.79,0.09 -1.12,0.28 -0.33,0.19 -0.6,0.45 -0.81,0.8 v 5.17 z"
           id="path72" />
        <path
           class="cls-5"
           d="m 298.22,461.93 c -0.51,0 -0.96,-0.09 -1.35,-0.27 -0.39,-0.18 -0.69,-0.42 -0.91,-0.74 -0.22,-0.32 -0.33,-0.69 -0.33,-1.11 0,-0.66 0.25,-1.18 0.76,-1.57 0.5,-0.38 1.19,-0.57 2.04,-0.57 0.76,0 1.44,0.16 2.06,0.48 v -0.92 c 0,-0.56 -0.16,-0.98 -0.48,-1.27 -0.32,-0.29 -0.78,-0.43 -1.39,-0.43 -0.35,0 -0.69,0.05 -1.04,0.15 -0.35,0.1 -0.73,0.25 -1.16,0.47 l -0.39,-0.8 c 0.5,-0.24 0.97,-0.42 1.4,-0.53 0.43,-0.11 0.86,-0.17 1.29,-0.17 0.89,0 1.57,0.21 2.05,0.63 0.48,0.42 0.72,1.02 0.72,1.81 v 4.72 h -1.01 v -0.69 c -0.32,0.27 -0.67,0.47 -1.04,0.61 -0.38,0.14 -0.79,0.2 -1.22,0.2 z m -1.6,-2.14 c 0,0.39 0.17,0.71 0.5,0.96 0.33,0.25 0.76,0.37 1.28,0.37 0.42,0 0.8,-0.07 1.15,-0.2 0.34,-0.13 0.66,-0.34 0.94,-0.62 v -1.32 c -0.29,-0.2 -0.6,-0.34 -0.92,-0.43 -0.33,-0.09 -0.69,-0.13 -1.11,-0.13 -0.56,0 -1.01,0.12 -1.34,0.37 -0.33,0.25 -0.5,0.58 -0.5,0.99 z"
           id="path73" />
        <path
           class="cls-5"
           d="m 306.64,464.8 c -0.49,0 -0.97,-0.06 -1.44,-0.19 -0.48,-0.13 -0.91,-0.31 -1.3,-0.54 l 0.45,-0.81 c 0.42,0.22 0.81,0.39 1.17,0.49 0.36,0.1 0.72,0.15 1.08,0.15 0.66,0 1.17,-0.16 1.51,-0.48 0.34,-0.32 0.52,-0.78 0.52,-1.4 v -0.98 c -0.64,0.54 -1.39,0.81 -2.23,0.81 -0.64,0 -1.23,-0.16 -1.76,-0.48 -0.53,-0.32 -0.95,-0.75 -1.27,-1.29 -0.31,-0.55 -0.47,-1.16 -0.47,-1.83 0,-0.67 0.16,-1.28 0.47,-1.83 0.31,-0.55 0.74,-0.98 1.27,-1.29 0.53,-0.31 1.13,-0.48 1.79,-0.48 0.4,0 0.79,0.07 1.17,0.21 0.38,0.14 0.73,0.34 1.04,0.62 v -0.7 h 1.02 V 462 c 0,0.9 -0.26,1.58 -0.78,2.07 -0.52,0.48 -1.27,0.72 -2.24,0.72 z m -0.15,-3.85 c 0.45,0 0.86,-0.08 1.23,-0.25 0.37,-0.17 0.68,-0.41 0.91,-0.71 v -3.44 c -0.23,-0.3 -0.54,-0.53 -0.92,-0.7 -0.38,-0.17 -0.79,-0.25 -1.23,-0.25 -0.49,0 -0.92,0.12 -1.31,0.35 -0.39,0.23 -0.69,0.55 -0.92,0.96 -0.22,0.41 -0.34,0.86 -0.34,1.37 0,0.51 0.11,0.96 0.34,1.37 0.23,0.41 0.54,0.73 0.92,0.97 0.38,0.24 0.82,0.36 1.29,0.36 z"
           id="path74" />
        <path
           class="cls-5"
           d="m 314.72,461.93 c -0.67,0 -1.28,-0.16 -1.83,-0.48 -0.55,-0.32 -0.98,-0.76 -1.3,-1.31 -0.32,-0.55 -0.48,-1.17 -0.48,-1.85 0,-0.68 0.15,-1.28 0.46,-1.83 0.31,-0.55 0.72,-0.98 1.25,-1.3 0.52,-0.32 1.11,-0.48 1.75,-0.48 0.64,0 1.19,0.16 1.69,0.48 0.5,0.32 0.9,0.76 1.19,1.3 0.29,0.54 0.44,1.16 0.44,1.83 v 0.32 h -5.75 c 0.06,0.46 0.2,0.87 0.44,1.23 0.24,0.36 0.55,0.65 0.93,0.86 0.38,0.21 0.8,0.31 1.26,0.31 0.36,0 0.72,-0.06 1.06,-0.17 0.35,-0.11 0.63,-0.27 0.87,-0.48 l 0.64,0.69 c -0.39,0.29 -0.8,0.51 -1.23,0.65 -0.43,0.14 -0.89,0.22 -1.39,0.22 z m -2.56,-4.14 h 4.69 c -0.06,-0.42 -0.19,-0.8 -0.41,-1.13 -0.22,-0.33 -0.49,-0.59 -0.82,-0.78 -0.33,-0.19 -0.69,-0.29 -1.08,-0.29 -0.39,0 -0.77,0.09 -1.11,0.28 -0.34,0.19 -0.62,0.45 -0.84,0.78 -0.22,0.33 -0.37,0.71 -0.43,1.14 z"
           id="path75" />
        <path
           class="cls-5"
           d="m 322.53,461.92 c -0.65,0 -1.25,-0.16 -1.78,-0.48 -0.54,-0.32 -0.96,-0.76 -1.27,-1.3 -0.31,-0.54 -0.47,-1.16 -0.47,-1.84 0,-0.68 0.16,-1.29 0.47,-1.83 0.31,-0.54 0.74,-0.97 1.27,-1.29 0.54,-0.32 1.14,-0.48 1.8,-0.48 0.41,0 0.81,0.07 1.19,0.2 0.38,0.13 0.73,0.33 1.05,0.59 v -3.47 l 1.04,-0.24 v 10.04 h -1.02 v -0.74 c -0.62,0.57 -1.37,0.85 -2.27,0.85 z m 0.1,-0.91 c 0.44,0 0.85,-0.09 1.22,-0.26 0.37,-0.17 0.69,-0.41 0.93,-0.72 v -3.47 c -0.24,-0.3 -0.55,-0.53 -0.93,-0.71 -0.38,-0.18 -0.79,-0.26 -1.22,-0.26 -0.49,0 -0.93,0.12 -1.32,0.35 -0.39,0.23 -0.71,0.55 -0.94,0.96 -0.23,0.41 -0.34,0.87 -0.34,1.38 0,0.51 0.11,0.98 0.34,1.39 0.23,0.41 0.54,0.74 0.94,0.98 0.4,0.24 0.84,0.36 1.32,0.36 z"
           id="path76" />
        <path
           class="cls-5"
           d="m 269.38,478.6 v -7.01 h 1.04 v 0.83 c 0.55,-0.64 1.29,-0.97 2.21,-0.97 0.53,0 1,0.11 1.41,0.34 0.41,0.23 0.72,0.55 0.95,0.95 0.23,0.41 0.34,0.88 0.34,1.42 v 4.44 h -1.02 v -4.23 c 0,-0.63 -0.18,-1.12 -0.52,-1.48 -0.35,-0.36 -0.83,-0.54 -1.44,-0.54 -0.42,0 -0.79,0.09 -1.12,0.28 -0.33,0.19 -0.6,0.45 -0.81,0.8 v 5.17 z"
           id="path77" />
        <path
           class="cls-5"
           d="m 280.33,478.74 c -0.66,0 -1.27,-0.16 -1.81,-0.48 -0.55,-0.32 -0.98,-0.76 -1.29,-1.31 -0.32,-0.55 -0.48,-1.17 -0.48,-1.85 0,-0.68 0.16,-1.3 0.48,-1.85 0.32,-0.55 0.75,-0.99 1.29,-1.31 0.55,-0.32 1.15,-0.48 1.81,-0.48 0.66,0 1.28,0.16 1.82,0.48 0.54,0.32 0.97,0.76 1.29,1.31 0.32,0.55 0.48,1.17 0.48,1.85 0,0.68 -0.16,1.3 -0.48,1.85 -0.32,0.55 -0.75,0.99 -1.29,1.31 -0.54,0.32 -1.15,0.48 -1.82,0.48 z m 0,-0.92 c 0.48,0 0.91,-0.12 1.29,-0.36 0.39,-0.24 0.7,-0.57 0.92,-0.98 0.23,-0.41 0.34,-0.87 0.34,-1.37 0,-0.5 -0.11,-0.97 -0.34,-1.38 -0.23,-0.41 -0.54,-0.73 -0.92,-0.97 -0.39,-0.24 -0.82,-0.36 -1.29,-0.36 -0.47,0 -0.91,0.12 -1.29,0.36 -0.39,0.24 -0.7,0.57 -0.92,0.97 -0.23,0.41 -0.34,0.87 -0.34,1.38 0,0.51 0.11,0.96 0.34,1.37 0.23,0.41 0.54,0.74 0.92,0.98 0.39,0.24 0.82,0.36 1.29,0.36 z"
           id="path78" />
        <path
           class="cls-5"
           d="m 288.56,478.71 c -0.65,0 -1.25,-0.16 -1.78,-0.48 -0.54,-0.32 -0.96,-0.76 -1.27,-1.3 -0.31,-0.55 -0.47,-1.16 -0.47,-1.84 0,-0.68 0.16,-1.29 0.47,-1.83 0.31,-0.54 0.74,-0.97 1.27,-1.29 0.54,-0.32 1.14,-0.48 1.8,-0.48 0.41,0 0.81,0.07 1.19,0.2 0.38,0.13 0.73,0.33 1.05,0.59 v -3.47 l 1.04,-0.24 v 10.04 h -1.02 v -0.74 c -0.62,0.57 -1.37,0.85 -2.27,0.85 z m 0.1,-0.91 c 0.44,0 0.85,-0.09 1.23,-0.26 0.38,-0.17 0.69,-0.41 0.93,-0.72 v -3.47 c -0.24,-0.3 -0.55,-0.53 -0.93,-0.71 -0.38,-0.18 -0.79,-0.26 -1.23,-0.26 -0.49,0 -0.93,0.12 -1.32,0.35 -0.4,0.23 -0.71,0.55 -0.94,0.96 -0.23,0.41 -0.34,0.87 -0.34,1.38 0,0.51 0.11,0.98 0.34,1.39 0.23,0.41 0.54,0.74 0.94,0.98 0.4,0.24 0.84,0.36 1.32,0.36 z"
           id="path79" />
        <path
           class="cls-5"
           d="m 296.9,478.73 c -0.67,0 -1.28,-0.16 -1.83,-0.48 -0.55,-0.32 -0.98,-0.76 -1.3,-1.31 -0.32,-0.55 -0.48,-1.17 -0.48,-1.85 0,-0.68 0.15,-1.28 0.46,-1.83 0.31,-0.55 0.72,-0.98 1.25,-1.3 0.52,-0.32 1.11,-0.48 1.75,-0.48 0.64,0 1.19,0.16 1.69,0.48 0.5,0.32 0.9,0.76 1.19,1.3 0.29,0.54 0.44,1.16 0.44,1.83 v 0.32 h -5.75 c 0.06,0.46 0.2,0.87 0.44,1.23 0.24,0.36 0.55,0.65 0.93,0.86 0.38,0.21 0.8,0.31 1.26,0.31 0.36,0 0.72,-0.06 1.06,-0.17 0.34,-0.11 0.63,-0.27 0.87,-0.48 l 0.64,0.69 c -0.39,0.29 -0.8,0.51 -1.22,0.65 -0.42,0.14 -0.89,0.22 -1.39,0.22 z m -2.56,-4.14 h 4.69 c -0.06,-0.42 -0.19,-0.8 -0.41,-1.13 -0.22,-0.33 -0.49,-0.59 -0.82,-0.78 -0.33,-0.19 -0.69,-0.29 -1.08,-0.29 -0.39,0 -0.77,0.09 -1.11,0.28 -0.34,0.19 -0.62,0.45 -0.84,0.78 -0.22,0.33 -0.37,0.71 -0.43,1.14 z"
           id="path80" />
        <path
           class="cls-5"
           d="m 304.32,478.6 v -0.74 l 3.92,-4.28 c 0.31,-0.34 0.55,-0.63 0.72,-0.89 0.17,-0.26 0.29,-0.5 0.36,-0.72 0.07,-0.22 0.11,-0.46 0.11,-0.71 0,-0.5 -0.19,-0.9 -0.58,-1.23 -0.39,-0.32 -0.88,-0.48 -1.48,-0.48 -0.46,0 -0.88,0.09 -1.27,0.27 -0.39,0.18 -0.83,0.49 -1.32,0.92 l -0.59,-0.7 c 0.51,-0.47 1.03,-0.81 1.55,-1.04 0.52,-0.23 1.07,-0.34 1.64,-0.34 0.57,0 1.11,0.11 1.57,0.33 0.46,0.22 0.82,0.52 1.08,0.9 0.26,0.38 0.39,0.82 0.39,1.32 0,0.33 -0.04,0.63 -0.13,0.9 -0.09,0.27 -0.23,0.57 -0.45,0.88 -0.22,0.31 -0.52,0.69 -0.92,1.13 l -3.35,3.63 h 5.05 c 0,0 0,0.87 0,0.87 h -6.31 z"
           id="path81" />
      </g>
    </g>
    <g
       id="g94">
      <g
         id="Page-1-3"
         data-name="Page-1">
        <g
           id="Icon-Red_Hat-App-A-Black-RGB-3"
           data-name="Icon-Red Hat-App-A-Black-RGB">
          <path
             id="Path-5"
             data-name="Path"
             class="cls-5"
             d="m 482.67,438.27 c -0.72,0.01 -1.3,0.55 -1.3,1.22 0.08,0.61 0.64,1.07 1.31,1.07 0.67,0 1.22,-0.46 1.31,-1.07 0,-0.67 -0.59,-1.22 -1.32,-1.22 z" />
          <path
             id="Path-6"
             data-name="Path"
             class="cls-5"
             d="m 488.15,438.27 c -0.72,0.01 -1.3,0.55 -1.3,1.22 0.08,0.61 0.64,1.07 1.31,1.07 0.67,0 1.22,-0.46 1.31,-1.07 0,-0.67 -0.59,-1.22 -1.32,-1.22 z" />
          <path
             id="Shape-3"
             data-name="Shape"
             class="cls-5"
             d="m 498.87,427.75 h -71.59 c -0.45,0 -0.89,0.17 -1.22,0.49 -0.32,0.32 -0.5,0.76 -0.49,1.22 v 71.59 c 0,0.45 0.17,0.89 0.49,1.22 0.32,0.32 0.76,0.5 1.22,0.49 h 71.59 c 0.45,0 0.89,-0.17 1.22,-0.49 0.33,-0.32 0.5,-0.76 0.49,-1.22 v -71.59 c 0,-0.45 -0.17,-0.89 -0.49,-1.22 -0.32,-0.32 -0.76,-0.5 -1.22,-0.49 z m 0.09,73.41 h -71.8 v -71.8 h 71.8 z" />
        </g>
      </g>
      <g
         id="g93">
        <path
           class="cls-5"
           d="M 435.05,461.8 V 452 h 1.51 l 3.35,6.96 3.33,-6.96 h 1.51 v 9.8 h -1.02 v -8.57 l -3.84,7.87 -3.84,-7.85 v 8.55 h -1.01 z"
           id="path82" />
        <path
           class="cls-5"
           d="m 448.78,461.93 c -0.51,0 -0.96,-0.09 -1.35,-0.27 -0.39,-0.18 -0.69,-0.42 -0.91,-0.74 -0.22,-0.32 -0.33,-0.69 -0.33,-1.11 0,-0.66 0.25,-1.18 0.76,-1.57 0.51,-0.39 1.19,-0.57 2.04,-0.57 0.76,0 1.44,0.16 2.06,0.48 v -0.92 c 0,-0.56 -0.16,-0.98 -0.48,-1.27 -0.32,-0.29 -0.78,-0.43 -1.39,-0.43 -0.35,0 -0.69,0.05 -1.04,0.15 -0.35,0.1 -0.74,0.25 -1.16,0.47 l -0.39,-0.8 c 0.5,-0.24 0.97,-0.42 1.4,-0.53 0.43,-0.11 0.86,-0.17 1.29,-0.17 0.89,0 1.57,0.21 2.05,0.63 0.48,0.42 0.72,1.02 0.72,1.81 v 4.72 h -1.01 v -0.69 c -0.32,0.27 -0.67,0.47 -1.04,0.61 -0.38,0.14 -0.79,0.2 -1.22,0.2 z m -1.6,-2.14 c 0,0.39 0.17,0.71 0.5,0.96 0.33,0.25 0.76,0.37 1.28,0.37 0.42,0 0.8,-0.07 1.15,-0.2 0.34,-0.13 0.66,-0.34 0.94,-0.62 v -1.32 c -0.29,-0.2 -0.6,-0.34 -0.92,-0.43 -0.33,-0.09 -0.7,-0.13 -1.11,-0.13 -0.56,0 -1.01,0.12 -1.34,0.37 -0.33,0.25 -0.5,0.58 -0.5,0.99 z"
           id="path83" />
        <path
           class="cls-5"
           d="m 453.79,461.8 v -7.01 h 1.04 v 0.83 c 0.55,-0.64 1.29,-0.97 2.21,-0.97 0.53,0 1,0.11 1.41,0.34 0.41,0.23 0.72,0.55 0.95,0.95 0.23,0.41 0.34,0.88 0.34,1.42 v 4.44 h -1.02 v -4.23 c 0,-0.63 -0.18,-1.12 -0.53,-1.48 -0.35,-0.36 -0.83,-0.54 -1.43,-0.54 -0.42,0 -0.79,0.09 -1.12,0.28 -0.33,0.19 -0.6,0.45 -0.81,0.8 v 5.17 z"
           id="path84" />
        <path
           class="cls-5"
           d="m 463.69,461.93 c -0.51,0 -0.96,-0.09 -1.35,-0.27 -0.39,-0.18 -0.69,-0.42 -0.91,-0.74 -0.22,-0.32 -0.33,-0.69 -0.33,-1.11 0,-0.66 0.25,-1.18 0.76,-1.57 0.51,-0.39 1.19,-0.57 2.04,-0.57 0.76,0 1.44,0.16 2.06,0.48 v -0.92 c 0,-0.56 -0.16,-0.98 -0.48,-1.27 -0.32,-0.29 -0.78,-0.43 -1.39,-0.43 -0.35,0 -0.69,0.05 -1.04,0.15 -0.35,0.1 -0.74,0.25 -1.16,0.47 l -0.39,-0.8 c 0.5,-0.24 0.97,-0.42 1.4,-0.53 0.43,-0.11 0.86,-0.17 1.29,-0.17 0.89,0 1.57,0.21 2.05,0.63 0.48,0.42 0.72,1.02 0.72,1.81 v 4.72 h -1.01 v -0.69 c -0.32,0.27 -0.67,0.47 -1.04,0.61 -0.38,0.14 -0.79,0.2 -1.22,0.2 z m -1.6,-2.14 c 0,0.39 0.17,0.71 0.5,0.96 0.33,0.25 0.76,0.37 1.28,0.37 0.42,0 0.8,-0.07 1.15,-0.2 0.34,-0.13 0.66,-0.34 0.94,-0.62 v -1.32 c -0.29,-0.2 -0.6,-0.34 -0.92,-0.43 -0.33,-0.09 -0.7,-0.13 -1.11,-0.13 -0.56,0 -1.01,0.12 -1.34,0.37 -0.33,0.25 -0.5,0.58 -0.5,0.99 z"
           id="path85" />
        <path
           class="cls-5"
           d="m 472.12,464.8 c -0.49,0 -0.97,-0.06 -1.44,-0.19 -0.48,-0.13 -0.91,-0.31 -1.3,-0.54 l 0.45,-0.81 c 0.42,0.22 0.81,0.39 1.17,0.49 0.36,0.1 0.72,0.15 1.08,0.15 0.66,0 1.17,-0.16 1.51,-0.48 0.34,-0.32 0.52,-0.78 0.52,-1.4 v -0.98 c -0.64,0.54 -1.39,0.81 -2.23,0.81 -0.64,0 -1.23,-0.16 -1.76,-0.48 -0.53,-0.32 -0.95,-0.75 -1.27,-1.29 -0.31,-0.55 -0.47,-1.16 -0.47,-1.83 0,-0.67 0.16,-1.28 0.47,-1.83 0.31,-0.55 0.74,-0.98 1.27,-1.29 0.53,-0.31 1.13,-0.48 1.79,-0.48 0.4,0 0.79,0.07 1.17,0.21 0.38,0.14 0.73,0.34 1.04,0.62 v -0.7 h 1.02 V 462 c 0,0.9 -0.26,1.58 -0.78,2.07 -0.52,0.48 -1.27,0.72 -2.24,0.72 z m -0.15,-3.85 c 0.45,0 0.86,-0.08 1.23,-0.25 0.37,-0.17 0.68,-0.41 0.91,-0.71 v -3.44 c -0.23,-0.3 -0.54,-0.53 -0.92,-0.7 -0.38,-0.17 -0.79,-0.25 -1.23,-0.25 -0.49,0 -0.92,0.12 -1.31,0.35 -0.39,0.23 -0.69,0.55 -0.92,0.96 -0.22,0.41 -0.34,0.86 -0.34,1.37 0,0.51 0.11,0.96 0.34,1.37 0.23,0.41 0.54,0.73 0.92,0.97 0.38,0.24 0.82,0.36 1.29,0.36 z"
           id="path86" />
        <path
           class="cls-5"
           d="m 480.2,461.93 c -0.67,0 -1.28,-0.16 -1.83,-0.48 -0.55,-0.32 -0.98,-0.76 -1.3,-1.31 -0.32,-0.55 -0.48,-1.17 -0.48,-1.85 0,-0.68 0.15,-1.28 0.46,-1.83 0.31,-0.55 0.72,-0.98 1.25,-1.3 0.52,-0.32 1.11,-0.48 1.75,-0.48 0.64,0 1.19,0.16 1.69,0.48 0.5,0.32 0.9,0.76 1.19,1.3 0.29,0.54 0.44,1.16 0.44,1.83 v 0.32 h -5.75 c 0.06,0.46 0.2,0.87 0.44,1.23 0.24,0.36 0.55,0.65 0.93,0.86 0.38,0.21 0.8,0.31 1.26,0.31 0.36,0 0.72,-0.06 1.06,-0.17 0.35,-0.11 0.63,-0.27 0.87,-0.48 l 0.64,0.69 c -0.39,0.29 -0.8,0.51 -1.23,0.65 -0.43,0.14 -0.89,0.22 -1.39,0.22 z m -2.56,-4.14 h 4.69 c -0.06,-0.42 -0.19,-0.8 -0.41,-1.13 -0.22,-0.33 -0.49,-0.59 -0.82,-0.78 -0.33,-0.19 -0.69,-0.29 -1.08,-0.29 -0.39,0 -0.77,0.09 -1.11,0.28 -0.34,0.19 -0.62,0.45 -0.84,0.78 -0.22,0.33 -0.37,0.71 -0.43,1.14 z"
           id="path87" />
        <path
           class="cls-5"
           d="m 488.01,461.92 c -0.65,0 -1.25,-0.16 -1.78,-0.48 -0.54,-0.32 -0.96,-0.76 -1.27,-1.3 -0.31,-0.54 -0.47,-1.16 -0.47,-1.84 0,-0.68 0.16,-1.29 0.47,-1.83 0.31,-0.54 0.74,-0.97 1.27,-1.29 0.54,-0.32 1.14,-0.48 1.8,-0.48 0.41,0 0.81,0.07 1.19,0.2 0.38,0.13 0.73,0.33 1.05,0.59 v -3.47 l 1.04,-0.24 v 10.04 h -1.02 v -0.74 c -0.62,0.57 -1.37,0.85 -2.27,0.85 z m 0.1,-0.91 c 0.44,0 0.85,-0.09 1.22,-0.26 0.37,-0.17 0.69,-0.41 0.93,-0.72 v -3.47 c -0.24,-0.3 -0.55,-0.53 -0.93,-0.71 -0.38,-0.18 -0.79,-0.26 -1.22,-0.26 -0.49,0 -0.93,0.12 -1.32,0.35 -0.39,0.23 -0.71,0.55 -0.94,0.96 -0.23,0.41 -0.34,0.87 -0.34,1.38 0,0.51 0.11,0.98 0.34,1.39 0.23,0.41 0.54,0.74 0.94,0.98 0.4,0.24 0.84,0.36 1.32,0.36 z"
           id="path88" />
        <path
           class="cls-5"
           d="m 434.85,478.6 v -7.01 h 1.04 v 0.83 c 0.55,-0.64 1.29,-0.97 2.21,-0.97 0.53,0 1,0.11 1.41,0.34 0.41,0.23 0.72,0.55 0.95,0.95 0.23,0.41 0.34,0.88 0.34,1.42 v 4.44 h -1.02 v -4.23 c 0,-0.63 -0.17,-1.12 -0.52,-1.48 -0.35,-0.36 -0.83,-0.54 -1.44,-0.54 -0.42,0 -0.79,0.09 -1.12,0.28 -0.33,0.19 -0.6,0.45 -0.81,0.8 v 5.17 z"
           id="path89" />
        <path
           class="cls-5"
           d="m 445.8,478.74 c -0.66,0 -1.27,-0.16 -1.81,-0.48 -0.55,-0.32 -0.98,-0.76 -1.29,-1.31 -0.32,-0.55 -0.48,-1.17 -0.48,-1.85 0,-0.68 0.16,-1.3 0.48,-1.85 0.32,-0.55 0.75,-0.99 1.29,-1.31 0.55,-0.32 1.15,-0.48 1.81,-0.48 0.66,0 1.28,0.16 1.82,0.48 0.54,0.32 0.97,0.76 1.29,1.31 0.32,0.55 0.48,1.17 0.48,1.85 0,0.68 -0.16,1.3 -0.48,1.85 -0.32,0.55 -0.75,0.99 -1.29,1.31 -0.54,0.32 -1.15,0.48 -1.82,0.48 z m 0,-0.92 c 0.48,0 0.91,-0.12 1.29,-0.36 0.39,-0.24 0.7,-0.57 0.92,-0.98 0.22,-0.41 0.34,-0.87 0.34,-1.37 0,-0.5 -0.11,-0.97 -0.34,-1.38 -0.23,-0.41 -0.54,-0.73 -0.92,-0.97 -0.39,-0.24 -0.82,-0.36 -1.29,-0.36 -0.47,0 -0.91,0.12 -1.29,0.36 -0.39,0.24 -0.7,0.57 -0.92,0.97 -0.23,0.41 -0.34,0.87 -0.34,1.38 0,0.51 0.11,0.96 0.34,1.37 0.23,0.41 0.54,0.74 0.92,0.98 0.39,0.24 0.82,0.36 1.29,0.36 z"
           id="path90" />
        <path
           class="cls-5"
           d="m 454.03,478.71 c -0.65,0 -1.25,-0.16 -1.79,-0.48 -0.54,-0.32 -0.96,-0.76 -1.27,-1.3 -0.31,-0.55 -0.47,-1.16 -0.47,-1.84 0,-0.68 0.16,-1.29 0.47,-1.83 0.31,-0.54 0.74,-0.97 1.27,-1.29 0.54,-0.32 1.14,-0.48 1.8,-0.48 0.41,0 0.81,0.07 1.19,0.2 0.38,0.13 0.73,0.33 1.05,0.59 v -3.47 l 1.04,-0.24 v 10.04 h -1.02 v -0.74 c -0.62,0.57 -1.37,0.85 -2.27,0.85 z m 0.1,-0.91 c 0.44,0 0.85,-0.09 1.23,-0.26 0.38,-0.17 0.69,-0.41 0.93,-0.72 v -3.47 c -0.24,-0.3 -0.55,-0.53 -0.93,-0.71 -0.38,-0.18 -0.79,-0.26 -1.23,-0.26 -0.49,0 -0.93,0.12 -1.32,0.35 -0.4,0.23 -0.71,0.55 -0.94,0.96 -0.23,0.41 -0.34,0.87 -0.34,1.38 0,0.51 0.11,0.98 0.34,1.39 0.23,0.41 0.54,0.74 0.94,0.98 0.4,0.24 0.84,0.36 1.32,0.36 z"
           id="path91" />
        <path
           class="cls-5"
           d="m 462.38,478.73 c -0.67,0 -1.28,-0.16 -1.83,-0.48 -0.55,-0.32 -0.98,-0.76 -1.3,-1.31 -0.32,-0.55 -0.48,-1.17 -0.48,-1.85 0,-0.68 0.15,-1.28 0.46,-1.83 0.31,-0.55 0.72,-0.98 1.25,-1.3 0.52,-0.32 1.11,-0.48 1.75,-0.48 0.64,0 1.19,0.16 1.69,0.48 0.5,0.32 0.9,0.76 1.19,1.3 0.29,0.54 0.44,1.16 0.44,1.83 v 0.32 h -5.75 c 0.06,0.46 0.2,0.87 0.44,1.23 0.24,0.36 0.55,0.65 0.93,0.86 0.38,0.21 0.8,0.31 1.26,0.31 0.36,0 0.72,-0.06 1.06,-0.17 0.34,-0.11 0.63,-0.27 0.87,-0.48 l 0.64,0.69 c -0.39,0.29 -0.8,0.51 -1.22,0.65 -0.42,0.14 -0.89,0.22 -1.39,0.22 z m -2.56,-4.14 h 4.69 c -0.06,-0.42 -0.19,-0.8 -0.41,-1.13 -0.22,-0.33 -0.49,-0.59 -0.82,-0.78 -0.33,-0.19 -0.69,-0.29 -1.08,-0.29 -0.39,0 -0.77,0.09 -1.11,0.28 -0.34,0.19 -0.62,0.45 -0.84,0.78 -0.22,0.33 -0.37,0.71 -0.43,1.14 z"
           id="path92" />
        <path
           class="cls-5"
           d="m 473.09,478.76 c -0.67,0 -1.3,-0.12 -1.88,-0.35 -0.58,-0.23 -1.1,-0.58 -1.55,-1.04 l 0.67,-0.66 c 0.41,0.41 0.83,0.71 1.27,0.89 0.43,0.18 0.93,0.27 1.48,0.27 0.48,0 0.9,-0.08 1.27,-0.25 0.37,-0.17 0.66,-0.4 0.86,-0.7 0.2,-0.3 0.31,-0.64 0.31,-1.02 0,-0.38 -0.09,-0.69 -0.27,-0.97 -0.18,-0.29 -0.43,-0.51 -0.75,-0.67 -0.32,-0.16 -0.68,-0.24 -1.09,-0.24 h -1.16 v -0.87 h 1.12 c 0.53,0 0.96,-0.16 1.29,-0.49 0.33,-0.33 0.5,-0.75 0.5,-1.27 0,-0.35 -0.09,-0.66 -0.28,-0.94 -0.19,-0.28 -0.44,-0.5 -0.76,-0.67 -0.32,-0.16 -0.68,-0.24 -1.09,-0.24 -0.5,0 -0.95,0.09 -1.35,0.27 -0.4,0.18 -0.8,0.49 -1.21,0.92 l -0.67,-0.67 c 0.44,-0.47 0.93,-0.82 1.48,-1.06 0.55,-0.24 1.14,-0.36 1.76,-0.36 0.62,0 1.13,0.12 1.6,0.35 0.47,0.23 0.84,0.55 1.11,0.96 0.27,0.41 0.41,0.87 0.41,1.38 0,0.51 -0.17,0.97 -0.5,1.38 -0.34,0.41 -0.78,0.69 -1.33,0.85 0.66,0.15 1.19,0.44 1.6,0.87 0.41,0.43 0.6,0.93 0.6,1.5 0,0.57 -0.15,1.03 -0.44,1.46 -0.29,0.43 -0.7,0.77 -1.22,1.01 -0.52,0.24 -1.11,0.36 -1.77,0.36 z"
           id="path93" />
      </g>
    </g>
  </g>
  <g
     id="Artboard"
     transform="translate(-1.1400001)">
    <line
       id="line95"
       class="cls-7"
       x1="297.64001"
       y1="146.2"
       x2="297.64001"
       y2="162.2" />
    <line
       id="Path-2-Copy"
       class="cls-7"
       x1="289.64001"
       y1="154.2"
       x2="305.64001"
       y2="154.2" />
  </g>
</svg>
